ISO-10303-21;
HEADER;
/* Generated by software containing ST-Developer
 * from STEP Tools, Inc. (www.steptools.com) 
 */

FILE_DESCRIPTION(
/* description */ (''),
/* implementation_level */ '2;1');

FILE_NAME(
/* name */ 'PIN2.step',
/* time_stamp */ '2026-01-22T18:46:07+01:00',
/* author */ (''),
/* organization */ (''),
/* preprocessor_version */ 'ST-DEVELOPER v20.1',
/* originating_system */ 'Autodesk Translation Framework v14.21.0.0',
/* authorisation */ '');

FILE_SCHEMA (('AUTOMOTIVE_DESIGN { 1 0 10303 214 3 1 1 }'));
ENDSEC;

DATA;
#10=MECHANICAL_DESIGN_GEOMETRIC_PRESENTATION_REPRESENTATION('',(#13),#1421);
#11=SHAPE_REPRESENTATION_RELATIONSHIP('SRR','None',#1428,#12);
#12=ADVANCED_BREP_SHAPE_REPRESENTATION('',(#14),#1420);
#13=STYLED_ITEM('',(#1437),#14);
#14=MANIFOLD_SOLID_BREP('Body2',#759);
#15=B_SPLINE_CURVE_WITH_KNOTS('',3,(#1148,#1149,#1150,#1151,#1152,#1153,
#1154,#1155,#1156,#1157,#1158,#1159,#1160,#1161,#1162,#1163),
 .UNSPECIFIED.,.F.,.F.,(4,2,2,2,2,2,2,4),(-0.0870414317905092,-0.0867133573354261,
-0.0767614186010299,-0.0671929780554721,-0.0567620899779632,-0.0488701894220743,
-0.0419604637971528,-0.0418187284477597),.UNSPECIFIED.);
#16=B_SPLINE_CURVE_WITH_KNOTS('',3,(#1166,#1167,#1168,#1169,#1170,#1171,
#1172,#1173,#1174,#1175,#1176,#1177,#1178,#1179,#1180,#1181),
 .UNSPECIFIED.,.F.,.F.,(4,2,2,2,2,2,2,4),(-0.000301265386912006,0.,0.0093482819316575,
0.0182438383839185,0.0273796965124332,0.0337570156073768,0.0390350356566608,
0.0398499806250654),.UNSPECIFIED.);
#17=B_SPLINE_CURVE_WITH_KNOTS('',3,(#1224,#1225,#1226,#1227,#1228,#1229,
#1230,#1231,#1232,#1233,#1234,#1235,#1236,#1237,#1238,#1239),
 .UNSPECIFIED.,.F.,.F.,(4,2,2,2,2,2,2,4),(-0.0980713095530343,-0.0976807160905427,
-0.0855605789401698,-0.0740274047143002,-0.0621826770613007,-0.0539144217126185,
-0.0470714181160824,-0.0460148341513198),.UNSPECIFIED.);
#18=B_SPLINE_CURVE_WITH_KNOTS('',3,(#1242,#1243,#1244,#1245,#1246,#1247,
#1248,#1249,#1250,#1251,#1252,#1253,#1254,#1255,#1256,#1257),
 .UNSPECIFIED.,.F.,.F.,(4,2,2,2,2,2,2,4),(-0.000312372922859719,0.,0.00974313639723866,
0.0189836195218854,0.029067462738873,0.0363832803319442,0.042298984325779,
0.0435348101064439),.UNSPECIFIED.);
#19=B_SPLINE_CURVE_WITH_KNOTS('',3,(#1276,#1277,#1278,#1279,#1280,#1281,
#1282,#1283,#1284,#1285,#1286,#1287,#1288,#1289,#1290,#1291),
 .UNSPECIFIED.,.F.,.F.,(4,2,2,2,2,2,2,4),(-0.0984659093353832,-0.0981042000789818,
-0.0868222279150246,-0.0761222983294031,-0.0644458079425513,-0.0559745265115087,
-0.0491244933119466,-0.0476934805981173),.UNSPECIFIED.);
#20=B_SPLINE_CURVE_WITH_KNOTS('',3,(#1294,#1295,#1296,#1297,#1298,#1299,
#1300,#1301,#1302,#1303,#1304,#1305,#1306,#1307,#1308,#1309),
 .UNSPECIFIED.,.F.,.F.,(4,2,2,2,2,2,2,4),(-0.000301265386915836,0.,0.00934828193170868,
0.0182438383840278,0.0273796965125945,0.0337570156075833,0.0390350356569072,
0.0398499806253168),.UNSPECIFIED.);
#21=B_SPLINE_CURVE_WITH_KNOTS('',3,(#1341,#1342,#1343,#1344,#1345,#1346,
#1347,#1348,#1349,#1350,#1351,#1352,#1353,#1354,#1355,#1356),
 .UNSPECIFIED.,.F.,.F.,(4,2,2,2,2,2,2,4),(-0.0980713095548659,-0.0976807160923659,
-0.0855605789417303,-0.0740274047156121,-0.0621826770623491,-0.0539144217134823,
-0.0470714181167952,-0.046014834152009),.UNSPECIFIED.);
#22=B_SPLINE_CURVE_WITH_KNOTS('',3,(#1359,#1360,#1361,#1362,#1363,#1364,
#1365,#1366,#1367,#1368,#1369,#1370,#1371,#1372,#1373,#1374),
 .UNSPECIFIED.,.F.,.F.,(4,2,2,2,2,2,2,4),(-0.000273834003072551,0.,0.00830658766554137,
0.0162930807836601,0.024999433239972,0.0315865682259048,0.0373539109698684,
0.0374722132561325),.UNSPECIFIED.);
#23=TOROIDAL_SURFACE('',#791,6.7,0.2);
#24=TOROIDAL_SURFACE('',#805,6.7,0.2);
#25=TOROIDAL_SURFACE('',#813,6.7,0.2);
#26=TOROIDAL_SURFACE('',#821,7.3,0.2);
#27=TOROIDAL_SURFACE('',#830,6.7,0.2);
#28=TOROIDAL_SURFACE('',#844,8.,2.);
#29=TOROIDAL_SURFACE('',#851,9.,1.);
#30=FACE_BOUND('',#141,.T.);
#31=FACE_BOUND('',#154,.T.);
#32=FACE_BOUND('',#155,.T.);
#33=FACE_BOUND('',#156,.T.);
#34=FACE_BOUND('',#157,.T.);
#35=FACE_BOUND('',#180,.T.);
#36=CIRCLE('',#784,8.);
#37=CIRCLE('',#792,6.7);
#38=CIRCLE('',#793,6.5);
#39=CIRCLE('',#799,6.5);
#40=CIRCLE('',#801,7.3);
#41=CIRCLE('',#802,6.7);
#42=CIRCLE('',#803,6.7);
#43=CIRCLE('',#804,6.7);
#44=CIRCLE('',#806,6.5);
#45=CIRCLE('',#812,6.5);
#46=CIRCLE('',#814,6.5);
#47=CIRCLE('',#820,6.5);
#48=CIRCLE('',#822,0.2);
#49=CIRCLE('',#823,7.5);
#50=CIRCLE('',#824,7.5);
#51=CIRCLE('',#826,7.5);
#52=CIRCLE('',#831,6.5);
#53=CIRCLE('',#833,6.5);
#54=CIRCLE('',#840,9.);
#55=CIRCLE('',#845,10.);
#56=CIRCLE('',#846,2.);
#57=CIRCLE('',#847,10.);
#58=CIRCLE('',#849,10.);
#59=CIRCLE('',#850,10.);
#60=CIRCLE('',#852,1.);
#61=PLANE('',#781);
#62=PLANE('',#782);
#63=PLANE('',#783);
#64=PLANE('',#785);
#65=PLANE('',#786);
#66=PLANE('',#787);
#67=PLANE('',#788);
#68=PLANE('',#789);
#69=PLANE('',#790);
#70=PLANE('',#797);
#71=PLANE('',#800);
#72=PLANE('',#810);
#73=PLANE('',#818);
#74=PLANE('',#834);
#75=PLANE('',#835);
#76=PLANE('',#836);
#77=PLANE('',#837);
#78=PLANE('',#838);
#79=PLANE('',#839);
#80=PLANE('',#841);
#81=PLANE('',#842);
#82=PLANE('',#843);
#83=PLANE('',#853);
#84=PLANE('',#854);
#85=FACE_OUTER_BOUND('',#134,.T.);
#86=FACE_OUTER_BOUND('',#135,.T.);
#87=FACE_OUTER_BOUND('',#136,.T.);
#88=FACE_OUTER_BOUND('',#137,.T.);
#89=FACE_OUTER_BOUND('',#138,.T.);
#90=FACE_OUTER_BOUND('',#139,.T.);
#91=FACE_OUTER_BOUND('',#140,.T.);
#92=FACE_OUTER_BOUND('',#142,.T.);
#93=FACE_OUTER_BOUND('',#143,.T.);
#94=FACE_OUTER_BOUND('',#144,.T.);
#95=FACE_OUTER_BOUND('',#145,.T.);
#96=FACE_OUTER_BOUND('',#146,.T.);
#97=FACE_OUTER_BOUND('',#147,.T.);
#98=FACE_OUTER_BOUND('',#148,.T.);
#99=FACE_OUTER_BOUND('',#149,.T.);
#100=FACE_OUTER_BOUND('',#150,.T.);
#101=FACE_OUTER_BOUND('',#151,.T.);
#102=FACE_OUTER_BOUND('',#152,.T.);
#103=FACE_OUTER_BOUND('',#153,.T.);
#104=FACE_OUTER_BOUND('',#158,.T.);
#105=FACE_OUTER_BOUND('',#159,.T.);
#106=FACE_OUTER_BOUND('',#160,.T.);
#107=FACE_OUTER_BOUND('',#161,.T.);
#108=FACE_OUTER_BOUND('',#162,.T.);
#109=FACE_OUTER_BOUND('',#163,.T.);
#110=FACE_OUTER_BOUND('',#164,.T.);
#111=FACE_OUTER_BOUND('',#165,.T.);
#112=FACE_OUTER_BOUND('',#166,.T.);
#113=FACE_OUTER_BOUND('',#167,.T.);
#114=FACE_OUTER_BOUND('',#168,.T.);
#115=FACE_OUTER_BOUND('',#169,.T.);
#116=FACE_OUTER_BOUND('',#170,.T.);
#117=FACE_OUTER_BOUND('',#171,.T.);
#118=FACE_OUTER_BOUND('',#172,.T.);
#119=FACE_OUTER_BOUND('',#173,.T.);
#120=FACE_OUTER_BOUND('',#174,.T.);
#121=FACE_OUTER_BOUND('',#175,.T.);
#122=FACE_OUTER_BOUND('',#176,.T.);
#123=FACE_OUTER_BOUND('',#177,.T.);
#124=FACE_OUTER_BOUND('',#178,.T.);
#125=FACE_OUTER_BOUND('',#179,.T.);
#126=FACE_OUTER_BOUND('',#181,.T.);
#127=FACE_OUTER_BOUND('',#182,.T.);
#128=FACE_OUTER_BOUND('',#183,.T.);
#129=FACE_OUTER_BOUND('',#184,.T.);
#130=FACE_OUTER_BOUND('',#185,.T.);
#131=FACE_OUTER_BOUND('',#186,.T.);
#132=FACE_OUTER_BOUND('',#187,.T.);
#133=FACE_OUTER_BOUND('',#188,.T.);
#134=EDGE_LOOP('',(#486,#487,#488,#489));
#135=EDGE_LOOP('',(#490,#491,#492,#493));
#136=EDGE_LOOP('',(#494,#495,#496,#497));
#137=EDGE_LOOP('',(#498,#499,#500,#501));
#138=EDGE_LOOP('',(#502,#503,#504,#505));
#139=EDGE_LOOP('',(#506,#507,#508,#509));
#140=EDGE_LOOP('',(#510));
#141=EDGE_LOOP('',(#511,#512,#513,#514));
#142=EDGE_LOOP('',(#515,#516,#517,#518));
#143=EDGE_LOOP('',(#519,#520,#521,#522));
#144=EDGE_LOOP('',(#523,#524,#525,#526));
#145=EDGE_LOOP('',(#527,#528,#529,#530));
#146=EDGE_LOOP('',(#531,#532,#533,#534));
#147=EDGE_LOOP('',(#535,#536,#537,#538));
#148=EDGE_LOOP('',(#539,#540,#541,#542));
#149=EDGE_LOOP('',(#543,#544,#545,#546));
#150=EDGE_LOOP('',(#547,#548,#549,#550));
#151=EDGE_LOOP('',(#551,#552,#553,#554));
#152=EDGE_LOOP('',(#555,#556,#557,#558));
#153=EDGE_LOOP('',(#559));
#154=EDGE_LOOP('',(#560,#561,#562));
#155=EDGE_LOOP('',(#563,#564,#565));
#156=EDGE_LOOP('',(#566,#567,#568));
#157=EDGE_LOOP('',(#569,#570,#571));
#158=EDGE_LOOP('',(#572,#573,#574,#575));
#159=EDGE_LOOP('',(#576,#577,#578,#579));
#160=EDGE_LOOP('',(#580,#581,#582,#583));
#161=EDGE_LOOP('',(#584,#585,#586,#587));
#162=EDGE_LOOP('',(#588,#589,#590,#591));
#163=EDGE_LOOP('',(#592,#593,#594,#595));
#164=EDGE_LOOP('',(#596,#597,#598,#599));
#165=EDGE_LOOP('',(#600,#601,#602,#603));
#166=EDGE_LOOP('',(#604,#605,#606,#607));
#167=EDGE_LOOP('',(#608,#609,#610,#611));
#168=EDGE_LOOP('',(#612,#613,#614,#615,#616));
#169=EDGE_LOOP('',(#617,#618,#619,#620,#621));
#170=EDGE_LOOP('',(#622,#623,#624,#625));
#171=EDGE_LOOP('',(#626,#627,#628,#629));
#172=EDGE_LOOP('',(#630,#631,#632,#633));
#173=EDGE_LOOP('',(#634,#635,#636,#637));
#174=EDGE_LOOP('',(#638,#639,#640,#641));
#175=EDGE_LOOP('',(#642,#643,#644,#645));
#176=EDGE_LOOP('',(#646,#647,#648,#649));
#177=EDGE_LOOP('',(#650,#651,#652,#653));
#178=EDGE_LOOP('',(#654,#655,#656,#657));
#179=EDGE_LOOP('',(#658));
#180=EDGE_LOOP('',(#659));
#181=EDGE_LOOP('',(#660,#661,#662));
#182=EDGE_LOOP('',(#663,#664,#665));
#183=EDGE_LOOP('',(#666,#667,#668));
#184=EDGE_LOOP('',(#669,#670,#671,#672,#673));
#185=EDGE_LOOP('',(#674,#675,#676,#677,#678,#679));
#186=EDGE_LOOP('',(#680,#681,#682,#683,#684));
#187=EDGE_LOOP('',(#685,#686,#687));
#188=EDGE_LOOP('',(#688,#689,#690,#691));
#189=ELLIPSE('',#774,2.12132034355964,1.5);
#190=ELLIPSE('',#775,2.12132034355964,1.5);
#191=ELLIPSE('',#777,2.12132034355964,1.5);
#192=ELLIPSE('',#779,2.12132034355964,1.5);
#193=ELLIPSE('',#795,0.663411947101791,0.2);
#194=ELLIPSE('',#808,0.214506245766462,0.2);
#195=ELLIPSE('',#816,0.214506245766462,0.2);
#196=ELLIPSE('',#828,0.663411947101789,0.2);
#197=LINE('',#1087,#259);
#198=LINE('',#1091,#260);
#199=LINE('',#1095,#261);
#200=LINE('',#1098,#262);
#201=LINE('',#1101,#263);
#202=LINE('',#1104,#264);
#203=LINE('',#1106,#265);
#204=LINE('',#1107,#266);
#205=LINE('',#1110,#267);
#206=LINE('',#1112,#268);
#207=LINE('',#1113,#269);
#208=LINE('',#1116,#270);
#209=LINE('',#1117,#271);
#210=LINE('',#1123,#272);
#211=LINE('',#1125,#273);
#212=LINE('',#1127,#274);
#213=LINE('',#1128,#275);
#214=LINE('',#1131,#276);
#215=LINE('',#1132,#277);
#216=LINE('',#1134,#278);
#217=LINE('',#1136,#279);
#218=LINE('',#1137,#280);
#219=LINE('',#1139,#281);
#220=LINE('',#1141,#282);
#221=LINE('',#1184,#283);
#222=LINE('',#1187,#284);
#223=LINE('',#1189,#285);
#224=LINE('',#1190,#286);
#225=LINE('',#1193,#287);
#226=LINE('',#1195,#288);
#227=LINE('',#1196,#289);
#228=LINE('',#1199,#290);
#229=LINE('',#1208,#291);
#230=LINE('',#1209,#292);
#231=LINE('',#1212,#293);
#232=LINE('',#1215,#294);
#233=LINE('',#1220,#295);
#234=LINE('',#1221,#296);
#235=LINE('',#1261,#297);
#236=LINE('',#1263,#298);
#237=LINE('',#1266,#299);
#238=LINE('',#1268,#300);
#239=LINE('',#1269,#301);
#240=LINE('',#1272,#302);
#241=LINE('',#1313,#303);
#242=LINE('',#1315,#304);
#243=LINE('',#1318,#305);
#244=LINE('',#1320,#306);
#245=LINE('',#1321,#307);
#246=LINE('',#1324,#308);
#247=LINE('',#1334,#309);
#248=LINE('',#1340,#310);
#249=LINE('',#1375,#311);
#250=LINE('',#1380,#312);
#251=LINE('',#1383,#313);
#252=LINE('',#1386,#314);
#253=LINE('',#1387,#315);
#254=LINE('',#1389,#316);
#255=LINE('',#1391,#317);
#256=LINE('',#1393,#318);
#257=LINE('',#1395,#319);
#258=LINE('',#1412,#320);
#259=VECTOR('',#859,10.);
#260=VECTOR('',#862,10.);
#261=VECTOR('',#867,10.);
#262=VECTOR('',#870,10.);
#263=VECTOR('',#873,10.);
#264=VECTOR('',#876,10.);
#265=VECTOR('',#879,10.);
#266=VECTOR('',#880,10.);
#267=VECTOR('',#883,10.);
#268=VECTOR('',#884,10.);
#269=VECTOR('',#885,10.);
#270=VECTOR('',#888,10.);
#271=VECTOR('',#889,10.);
#272=VECTOR('',#896,10.);
#273=VECTOR('',#897,10.);
#274=VECTOR('',#898,10.);
#275=VECTOR('',#899,10.);
#276=VECTOR('',#902,10.);
#277=VECTOR('',#903,10.);
#278=VECTOR('',#906,10.);
#279=VECTOR('',#907,10.);
#280=VECTOR('',#908,10.);
#281=VECTOR('',#911,10.);
#282=VECTOR('',#914,10.);
#283=VECTOR('',#925,10.);
#284=VECTOR('',#928,10.);
#285=VECTOR('',#931,10.);
#286=VECTOR('',#932,10.);
#287=VECTOR('',#935,10.);
#288=VECTOR('',#936,10.);
#289=VECTOR('',#937,10.);
#290=VECTOR('',#940,10.);
#291=VECTOR('',#949,10.);
#292=VECTOR('',#950,10.);
#293=VECTOR('',#951,10.);
#294=VECTOR('',#954,10.);
#295=VECTOR('',#957,10.);
#296=VECTOR('',#958,10.);
#297=VECTOR('',#967,10.);
#298=VECTOR('',#970,10.);
#299=VECTOR('',#973,10.);
#300=VECTOR('',#974,10.);
#301=VECTOR('',#975,10.);
#302=VECTOR('',#978,10.);
#303=VECTOR('',#989,10.);
#304=VECTOR('',#992,10.);
#305=VECTOR('',#995,10.);
#306=VECTOR('',#996,10.);
#307=VECTOR('',#997,10.);
#308=VECTOR('',#1000,10.);
#309=VECTOR('',#1013,7.5);
#310=VECTOR('',#1020,10.);
#311=VECTOR('',#1023,10.);
#312=VECTOR('',#1030,10.);
#313=VECTOR('',#1033,10.);
#314=VECTOR('',#1036,10.);
#315=VECTOR('',#1037,10.);
#316=VECTOR('',#1040,10.);
#317=VECTOR('',#1043,10.);
#318=VECTOR('',#1046,10.);
#319=VECTOR('',#1049,10.);
#320=VECTOR('',#1072,10.);
#321=VERTEX_POINT('',#1085);
#322=VERTEX_POINT('',#1086);
#323=VERTEX_POINT('',#1088);
#324=VERTEX_POINT('',#1090);
#325=VERTEX_POINT('',#1094);
#326=VERTEX_POINT('',#1096);
#327=VERTEX_POINT('',#1100);
#328=VERTEX_POINT('',#1102);
#329=VERTEX_POINT('',#1109);
#330=VERTEX_POINT('',#1111);
#331=VERTEX_POINT('',#1115);
#332=VERTEX_POINT('',#1119);
#333=VERTEX_POINT('',#1122);
#334=VERTEX_POINT('',#1124);
#335=VERTEX_POINT('',#1126);
#336=VERTEX_POINT('',#1130);
#337=VERTEX_POINT('',#1135);
#338=VERTEX_POINT('',#1144);
#339=VERTEX_POINT('',#1145);
#340=VERTEX_POINT('',#1147);
#341=VERTEX_POINT('',#1164);
#342=VERTEX_POINT('',#1183);
#343=VERTEX_POINT('',#1185);
#344=VERTEX_POINT('',#1192);
#345=VERTEX_POINT('',#1194);
#346=VERTEX_POINT('',#1198);
#347=VERTEX_POINT('',#1202);
#348=VERTEX_POINT('',#1204);
#349=VERTEX_POINT('',#1205);
#350=VERTEX_POINT('',#1207);
#351=VERTEX_POINT('',#1210);
#352=VERTEX_POINT('',#1211);
#353=VERTEX_POINT('',#1213);
#354=VERTEX_POINT('',#1216);
#355=VERTEX_POINT('',#1217);
#356=VERTEX_POINT('',#1219);
#357=VERTEX_POINT('',#1223);
#358=VERTEX_POINT('',#1240);
#359=VERTEX_POINT('',#1259);
#360=VERTEX_POINT('',#1265);
#361=VERTEX_POINT('',#1267);
#362=VERTEX_POINT('',#1271);
#363=VERTEX_POINT('',#1275);
#364=VERTEX_POINT('',#1292);
#365=VERTEX_POINT('',#1311);
#366=VERTEX_POINT('',#1317);
#367=VERTEX_POINT('',#1319);
#368=VERTEX_POINT('',#1323);
#369=VERTEX_POINT('',#1327);
#370=VERTEX_POINT('',#1329);
#371=VERTEX_POINT('',#1333);
#372=VERTEX_POINT('',#1337);
#373=VERTEX_POINT('',#1339);
#374=VERTEX_POINT('',#1358);
#375=VERTEX_POINT('',#1379);
#376=VERTEX_POINT('',#1381);
#377=VERTEX_POINT('',#1385);
#378=VERTEX_POINT('',#1397);
#379=VERTEX_POINT('',#1403);
#380=VERTEX_POINT('',#1404);
#381=VERTEX_POINT('',#1409);
#382=VERTEX_POINT('',#1410);
#383=EDGE_CURVE('',#321,#322,#197,.T.);
#384=EDGE_CURVE('',#322,#323,#189,.T.);
#385=EDGE_CURVE('',#323,#324,#198,.T.);
#386=EDGE_CURVE('',#321,#324,#190,.T.);
#387=EDGE_CURVE('',#322,#325,#199,.T.);
#388=EDGE_CURVE('',#325,#326,#191,.T.);
#389=EDGE_CURVE('',#326,#323,#200,.T.);
#390=EDGE_CURVE('',#325,#327,#201,.T.);
#391=EDGE_CURVE('',#327,#328,#192,.T.);
#392=EDGE_CURVE('',#328,#326,#202,.T.);
#393=EDGE_CURVE('',#324,#328,#203,.T.);
#394=EDGE_CURVE('',#327,#321,#204,.T.);
#395=EDGE_CURVE('',#329,#324,#205,.T.);
#396=EDGE_CURVE('',#330,#329,#206,.T.);
#397=EDGE_CURVE('',#330,#328,#207,.T.);
#398=EDGE_CURVE('',#331,#323,#208,.T.);
#399=EDGE_CURVE('',#329,#331,#209,.T.);
#400=EDGE_CURVE('',#332,#332,#36,.T.);
#401=EDGE_CURVE('',#333,#330,#210,.T.);
#402=EDGE_CURVE('',#330,#334,#211,.T.);
#403=EDGE_CURVE('',#334,#335,#212,.T.);
#404=EDGE_CURVE('',#335,#333,#213,.T.);
#405=EDGE_CURVE('',#336,#334,#214,.T.);
#406=EDGE_CURVE('',#336,#329,#215,.T.);
#407=EDGE_CURVE('',#331,#333,#216,.T.);
#408=EDGE_CURVE('',#335,#337,#217,.T.);
#409=EDGE_CURVE('',#337,#331,#218,.T.);
#410=EDGE_CURVE('',#337,#336,#219,.T.);
#411=EDGE_CURVE('',#333,#326,#220,.T.);
#412=EDGE_CURVE('',#338,#339,#37,.T.);
#413=EDGE_CURVE('',#339,#340,#15,.T.);
#414=EDGE_CURVE('',#340,#341,#38,.T.);
#415=EDGE_CURVE('',#338,#341,#16,.T.);
#416=EDGE_CURVE('',#339,#342,#221,.T.);
#417=EDGE_CURVE('',#342,#343,#193,.T.);
#418=EDGE_CURVE('',#343,#340,#222,.T.);
#419=EDGE_CURVE('',#341,#343,#223,.T.);
#420=EDGE_CURVE('',#342,#338,#224,.T.);
#421=EDGE_CURVE('',#344,#341,#225,.T.);
#422=EDGE_CURVE('',#345,#344,#226,.T.);
#423=EDGE_CURVE('',#345,#343,#227,.T.);
#424=EDGE_CURVE('',#346,#340,#228,.T.);
#425=EDGE_CURVE('',#344,#346,#39,.T.);
#426=EDGE_CURVE('',#347,#347,#40,.T.);
#427=EDGE_CURVE('',#348,#349,#41,.T.);
#428=EDGE_CURVE('',#350,#348,#229,.T.);
#429=EDGE_CURVE('',#349,#350,#230,.T.);
#430=EDGE_CURVE('',#351,#352,#231,.T.);
#431=EDGE_CURVE('',#353,#351,#42,.T.);
#432=EDGE_CURVE('',#352,#353,#232,.T.);
#433=EDGE_CURVE('',#354,#355,#43,.T.);
#434=EDGE_CURVE('',#356,#354,#233,.T.);
#435=EDGE_CURVE('',#355,#356,#234,.T.);
#436=EDGE_CURVE('',#349,#357,#17,.T.);
#437=EDGE_CURVE('',#357,#358,#44,.T.);
#438=EDGE_CURVE('',#348,#358,#18,.T.);
#439=EDGE_CURVE('',#350,#359,#194,.T.);
#440=EDGE_CURVE('',#359,#357,#235,.T.);
#441=EDGE_CURVE('',#358,#359,#236,.T.);
#442=EDGE_CURVE('',#360,#358,#237,.T.);
#443=EDGE_CURVE('',#361,#360,#238,.T.);
#444=EDGE_CURVE('',#361,#359,#239,.T.);
#445=EDGE_CURVE('',#362,#357,#240,.T.);
#446=EDGE_CURVE('',#360,#362,#45,.T.);
#447=EDGE_CURVE('',#355,#363,#19,.T.);
#448=EDGE_CURVE('',#363,#364,#46,.T.);
#449=EDGE_CURVE('',#354,#364,#20,.T.);
#450=EDGE_CURVE('',#356,#365,#195,.T.);
#451=EDGE_CURVE('',#365,#363,#241,.T.);
#452=EDGE_CURVE('',#364,#365,#242,.T.);
#453=EDGE_CURVE('',#366,#364,#243,.T.);
#454=EDGE_CURVE('',#367,#366,#244,.T.);
#455=EDGE_CURVE('',#367,#365,#245,.T.);
#456=EDGE_CURVE('',#368,#363,#246,.T.);
#457=EDGE_CURVE('',#366,#368,#47,.T.);
#458=EDGE_CURVE('',#347,#369,#48,.T.);
#459=EDGE_CURVE('',#369,#370,#49,.T.);
#460=EDGE_CURVE('',#370,#369,#50,.T.);
#461=EDGE_CURVE('',#370,#371,#247,.T.);
#462=EDGE_CURVE('',#371,#371,#51,.T.);
#463=EDGE_CURVE('',#352,#372,#196,.T.);
#464=EDGE_CURVE('',#372,#373,#248,.T.);
#465=EDGE_CURVE('',#351,#373,#21,.T.);
#466=EDGE_CURVE('',#353,#374,#22,.T.);
#467=EDGE_CURVE('',#374,#372,#249,.T.);
#468=EDGE_CURVE('',#373,#374,#52,.T.);
#469=EDGE_CURVE('',#375,#373,#250,.T.);
#470=EDGE_CURVE('',#376,#375,#53,.T.);
#471=EDGE_CURVE('',#376,#374,#251,.T.);
#472=EDGE_CURVE('',#377,#372,#252,.T.);
#473=EDGE_CURVE('',#375,#377,#253,.T.);
#474=EDGE_CURVE('',#346,#345,#254,.T.);
#475=EDGE_CURVE('',#368,#367,#255,.T.);
#476=EDGE_CURVE('',#362,#361,#256,.T.);
#477=EDGE_CURVE('',#377,#376,#257,.T.);
#478=EDGE_CURVE('',#378,#378,#54,.T.);
#479=EDGE_CURVE('',#379,#380,#55,.T.);
#480=EDGE_CURVE('',#380,#332,#56,.T.);
#481=EDGE_CURVE('',#380,#379,#57,.T.);
#482=EDGE_CURVE('',#381,#382,#58,.T.);
#483=EDGE_CURVE('',#381,#379,#258,.T.);
#484=EDGE_CURVE('',#382,#381,#59,.T.);
#485=EDGE_CURVE('',#378,#382,#60,.T.);
#486=ORIENTED_EDGE('',*,*,#383,.T.);
#487=ORIENTED_EDGE('',*,*,#384,.T.);
#488=ORIENTED_EDGE('',*,*,#385,.T.);
#489=ORIENTED_EDGE('',*,*,#386,.F.);
#490=ORIENTED_EDGE('',*,*,#387,.T.);
#491=ORIENTED_EDGE('',*,*,#388,.T.);
#492=ORIENTED_EDGE('',*,*,#389,.T.);
#493=ORIENTED_EDGE('',*,*,#384,.F.);
#494=ORIENTED_EDGE('',*,*,#390,.T.);
#495=ORIENTED_EDGE('',*,*,#391,.T.);
#496=ORIENTED_EDGE('',*,*,#392,.T.);
#497=ORIENTED_EDGE('',*,*,#388,.F.);
#498=ORIENTED_EDGE('',*,*,#393,.T.);
#499=ORIENTED_EDGE('',*,*,#391,.F.);
#500=ORIENTED_EDGE('',*,*,#394,.T.);
#501=ORIENTED_EDGE('',*,*,#386,.T.);
#502=ORIENTED_EDGE('',*,*,#393,.F.);
#503=ORIENTED_EDGE('',*,*,#395,.F.);
#504=ORIENTED_EDGE('',*,*,#396,.F.);
#505=ORIENTED_EDGE('',*,*,#397,.T.);
#506=ORIENTED_EDGE('',*,*,#385,.F.);
#507=ORIENTED_EDGE('',*,*,#398,.F.);
#508=ORIENTED_EDGE('',*,*,#399,.F.);
#509=ORIENTED_EDGE('',*,*,#395,.T.);
#510=ORIENTED_EDGE('',*,*,#400,.F.);
#511=ORIENTED_EDGE('',*,*,#383,.F.);
#512=ORIENTED_EDGE('',*,*,#394,.F.);
#513=ORIENTED_EDGE('',*,*,#390,.F.);
#514=ORIENTED_EDGE('',*,*,#387,.F.);
#515=ORIENTED_EDGE('',*,*,#401,.T.);
#516=ORIENTED_EDGE('',*,*,#402,.T.);
#517=ORIENTED_EDGE('',*,*,#403,.T.);
#518=ORIENTED_EDGE('',*,*,#404,.T.);
#519=ORIENTED_EDGE('',*,*,#405,.T.);
#520=ORIENTED_EDGE('',*,*,#402,.F.);
#521=ORIENTED_EDGE('',*,*,#396,.T.);
#522=ORIENTED_EDGE('',*,*,#406,.F.);
#523=ORIENTED_EDGE('',*,*,#407,.T.);
#524=ORIENTED_EDGE('',*,*,#404,.F.);
#525=ORIENTED_EDGE('',*,*,#408,.T.);
#526=ORIENTED_EDGE('',*,*,#409,.T.);
#527=ORIENTED_EDGE('',*,*,#399,.T.);
#528=ORIENTED_EDGE('',*,*,#409,.F.);
#529=ORIENTED_EDGE('',*,*,#410,.T.);
#530=ORIENTED_EDGE('',*,*,#406,.T.);
#531=ORIENTED_EDGE('',*,*,#392,.F.);
#532=ORIENTED_EDGE('',*,*,#397,.F.);
#533=ORIENTED_EDGE('',*,*,#401,.F.);
#534=ORIENTED_EDGE('',*,*,#411,.T.);
#535=ORIENTED_EDGE('',*,*,#403,.F.);
#536=ORIENTED_EDGE('',*,*,#405,.F.);
#537=ORIENTED_EDGE('',*,*,#410,.F.);
#538=ORIENTED_EDGE('',*,*,#408,.F.);
#539=ORIENTED_EDGE('',*,*,#412,.T.);
#540=ORIENTED_EDGE('',*,*,#413,.T.);
#541=ORIENTED_EDGE('',*,*,#414,.T.);
#542=ORIENTED_EDGE('',*,*,#415,.F.);
#543=ORIENTED_EDGE('',*,*,#416,.T.);
#544=ORIENTED_EDGE('',*,*,#417,.T.);
#545=ORIENTED_EDGE('',*,*,#418,.T.);
#546=ORIENTED_EDGE('',*,*,#413,.F.);
#547=ORIENTED_EDGE('',*,*,#419,.T.);
#548=ORIENTED_EDGE('',*,*,#417,.F.);
#549=ORIENTED_EDGE('',*,*,#420,.T.);
#550=ORIENTED_EDGE('',*,*,#415,.T.);
#551=ORIENTED_EDGE('',*,*,#419,.F.);
#552=ORIENTED_EDGE('',*,*,#421,.F.);
#553=ORIENTED_EDGE('',*,*,#422,.F.);
#554=ORIENTED_EDGE('',*,*,#423,.T.);
#555=ORIENTED_EDGE('',*,*,#414,.F.);
#556=ORIENTED_EDGE('',*,*,#424,.F.);
#557=ORIENTED_EDGE('',*,*,#425,.F.);
#558=ORIENTED_EDGE('',*,*,#421,.T.);
#559=ORIENTED_EDGE('',*,*,#426,.F.);
#560=ORIENTED_EDGE('',*,*,#427,.F.);
#561=ORIENTED_EDGE('',*,*,#428,.F.);
#562=ORIENTED_EDGE('',*,*,#429,.F.);
#563=ORIENTED_EDGE('',*,*,#430,.F.);
#564=ORIENTED_EDGE('',*,*,#431,.F.);
#565=ORIENTED_EDGE('',*,*,#432,.F.);
#566=ORIENTED_EDGE('',*,*,#433,.F.);
#567=ORIENTED_EDGE('',*,*,#434,.F.);
#568=ORIENTED_EDGE('',*,*,#435,.F.);
#569=ORIENTED_EDGE('',*,*,#412,.F.);
#570=ORIENTED_EDGE('',*,*,#420,.F.);
#571=ORIENTED_EDGE('',*,*,#416,.F.);
#572=ORIENTED_EDGE('',*,*,#427,.T.);
#573=ORIENTED_EDGE('',*,*,#436,.T.);
#574=ORIENTED_EDGE('',*,*,#437,.T.);
#575=ORIENTED_EDGE('',*,*,#438,.F.);
#576=ORIENTED_EDGE('',*,*,#429,.T.);
#577=ORIENTED_EDGE('',*,*,#439,.T.);
#578=ORIENTED_EDGE('',*,*,#440,.T.);
#579=ORIENTED_EDGE('',*,*,#436,.F.);
#580=ORIENTED_EDGE('',*,*,#441,.T.);
#581=ORIENTED_EDGE('',*,*,#439,.F.);
#582=ORIENTED_EDGE('',*,*,#428,.T.);
#583=ORIENTED_EDGE('',*,*,#438,.T.);
#584=ORIENTED_EDGE('',*,*,#441,.F.);
#585=ORIENTED_EDGE('',*,*,#442,.F.);
#586=ORIENTED_EDGE('',*,*,#443,.F.);
#587=ORIENTED_EDGE('',*,*,#444,.T.);
#588=ORIENTED_EDGE('',*,*,#437,.F.);
#589=ORIENTED_EDGE('',*,*,#445,.F.);
#590=ORIENTED_EDGE('',*,*,#446,.F.);
#591=ORIENTED_EDGE('',*,*,#442,.T.);
#592=ORIENTED_EDGE('',*,*,#433,.T.);
#593=ORIENTED_EDGE('',*,*,#447,.T.);
#594=ORIENTED_EDGE('',*,*,#448,.T.);
#595=ORIENTED_EDGE('',*,*,#449,.F.);
#596=ORIENTED_EDGE('',*,*,#435,.T.);
#597=ORIENTED_EDGE('',*,*,#450,.T.);
#598=ORIENTED_EDGE('',*,*,#451,.T.);
#599=ORIENTED_EDGE('',*,*,#447,.F.);
#600=ORIENTED_EDGE('',*,*,#452,.T.);
#601=ORIENTED_EDGE('',*,*,#450,.F.);
#602=ORIENTED_EDGE('',*,*,#434,.T.);
#603=ORIENTED_EDGE('',*,*,#449,.T.);
#604=ORIENTED_EDGE('',*,*,#452,.F.);
#605=ORIENTED_EDGE('',*,*,#453,.F.);
#606=ORIENTED_EDGE('',*,*,#454,.F.);
#607=ORIENTED_EDGE('',*,*,#455,.T.);
#608=ORIENTED_EDGE('',*,*,#448,.F.);
#609=ORIENTED_EDGE('',*,*,#456,.F.);
#610=ORIENTED_EDGE('',*,*,#457,.F.);
#611=ORIENTED_EDGE('',*,*,#453,.T.);
#612=ORIENTED_EDGE('',*,*,#426,.T.);
#613=ORIENTED_EDGE('',*,*,#458,.T.);
#614=ORIENTED_EDGE('',*,*,#459,.T.);
#615=ORIENTED_EDGE('',*,*,#460,.T.);
#616=ORIENTED_EDGE('',*,*,#458,.F.);
#617=ORIENTED_EDGE('',*,*,#460,.F.);
#618=ORIENTED_EDGE('',*,*,#461,.T.);
#619=ORIENTED_EDGE('',*,*,#462,.F.);
#620=ORIENTED_EDGE('',*,*,#461,.F.);
#621=ORIENTED_EDGE('',*,*,#459,.F.);
#622=ORIENTED_EDGE('',*,*,#430,.T.);
#623=ORIENTED_EDGE('',*,*,#463,.T.);
#624=ORIENTED_EDGE('',*,*,#464,.T.);
#625=ORIENTED_EDGE('',*,*,#465,.F.);
#626=ORIENTED_EDGE('',*,*,#432,.T.);
#627=ORIENTED_EDGE('',*,*,#466,.T.);
#628=ORIENTED_EDGE('',*,*,#467,.T.);
#629=ORIENTED_EDGE('',*,*,#463,.F.);
#630=ORIENTED_EDGE('',*,*,#468,.T.);
#631=ORIENTED_EDGE('',*,*,#466,.F.);
#632=ORIENTED_EDGE('',*,*,#431,.T.);
#633=ORIENTED_EDGE('',*,*,#465,.T.);
#634=ORIENTED_EDGE('',*,*,#468,.F.);
#635=ORIENTED_EDGE('',*,*,#469,.F.);
#636=ORIENTED_EDGE('',*,*,#470,.F.);
#637=ORIENTED_EDGE('',*,*,#471,.T.);
#638=ORIENTED_EDGE('',*,*,#464,.F.);
#639=ORIENTED_EDGE('',*,*,#472,.F.);
#640=ORIENTED_EDGE('',*,*,#473,.F.);
#641=ORIENTED_EDGE('',*,*,#469,.T.);
#642=ORIENTED_EDGE('',*,*,#418,.F.);
#643=ORIENTED_EDGE('',*,*,#423,.F.);
#644=ORIENTED_EDGE('',*,*,#474,.F.);
#645=ORIENTED_EDGE('',*,*,#424,.T.);
#646=ORIENTED_EDGE('',*,*,#451,.F.);
#647=ORIENTED_EDGE('',*,*,#455,.F.);
#648=ORIENTED_EDGE('',*,*,#475,.F.);
#649=ORIENTED_EDGE('',*,*,#456,.T.);
#650=ORIENTED_EDGE('',*,*,#440,.F.);
#651=ORIENTED_EDGE('',*,*,#444,.F.);
#652=ORIENTED_EDGE('',*,*,#476,.F.);
#653=ORIENTED_EDGE('',*,*,#445,.T.);
#654=ORIENTED_EDGE('',*,*,#467,.F.);
#655=ORIENTED_EDGE('',*,*,#471,.F.);
#656=ORIENTED_EDGE('',*,*,#477,.F.);
#657=ORIENTED_EDGE('',*,*,#472,.T.);
#658=ORIENTED_EDGE('',*,*,#478,.F.);
#659=ORIENTED_EDGE('',*,*,#462,.T.);
#660=ORIENTED_EDGE('',*,*,#477,.T.);
#661=ORIENTED_EDGE('',*,*,#470,.T.);
#662=ORIENTED_EDGE('',*,*,#473,.T.);
#663=ORIENTED_EDGE('',*,*,#446,.T.);
#664=ORIENTED_EDGE('',*,*,#476,.T.);
#665=ORIENTED_EDGE('',*,*,#443,.T.);
#666=ORIENTED_EDGE('',*,*,#475,.T.);
#667=ORIENTED_EDGE('',*,*,#454,.T.);
#668=ORIENTED_EDGE('',*,*,#457,.T.);
#669=ORIENTED_EDGE('',*,*,#479,.T.);
#670=ORIENTED_EDGE('',*,*,#480,.T.);
#671=ORIENTED_EDGE('',*,*,#400,.T.);
#672=ORIENTED_EDGE('',*,*,#480,.F.);
#673=ORIENTED_EDGE('',*,*,#481,.T.);
#674=ORIENTED_EDGE('',*,*,#482,.F.);
#675=ORIENTED_EDGE('',*,*,#483,.T.);
#676=ORIENTED_EDGE('',*,*,#481,.F.);
#677=ORIENTED_EDGE('',*,*,#479,.F.);
#678=ORIENTED_EDGE('',*,*,#483,.F.);
#679=ORIENTED_EDGE('',*,*,#484,.F.);
#680=ORIENTED_EDGE('',*,*,#478,.T.);
#681=ORIENTED_EDGE('',*,*,#485,.T.);
#682=ORIENTED_EDGE('',*,*,#484,.T.);
#683=ORIENTED_EDGE('',*,*,#482,.T.);
#684=ORIENTED_EDGE('',*,*,#485,.F.);
#685=ORIENTED_EDGE('',*,*,#474,.T.);
#686=ORIENTED_EDGE('',*,*,#422,.T.);
#687=ORIENTED_EDGE('',*,*,#425,.T.);
#688=ORIENTED_EDGE('',*,*,#389,.F.);
#689=ORIENTED_EDGE('',*,*,#411,.F.);
#690=ORIENTED_EDGE('',*,*,#407,.F.);
#691=ORIENTED_EDGE('',*,*,#398,.T.);
#692=CYLINDRICAL_SURFACE('',#773,1.5);
#693=CYLINDRICAL_SURFACE('',#776,1.5);
#694=CYLINDRICAL_SURFACE('',#778,1.5);
#695=CYLINDRICAL_SURFACE('',#780,1.5);
#696=CYLINDRICAL_SURFACE('',#794,0.2);
#697=CYLINDRICAL_SURFACE('',#796,0.2);
#698=CYLINDRICAL_SURFACE('',#798,6.5);
#699=CYLINDRICAL_SURFACE('',#807,0.2);
#700=CYLINDRICAL_SURFACE('',#809,0.2);
#701=CYLINDRICAL_SURFACE('',#811,6.5);
#702=CYLINDRICAL_SURFACE('',#815,0.2);
#703=CYLINDRICAL_SURFACE('',#817,0.2);
#704=CYLINDRICAL_SURFACE('',#819,6.5);
#705=CYLINDRICAL_SURFACE('',#825,7.5);
#706=CYLINDRICAL_SURFACE('',#827,0.2);
#707=CYLINDRICAL_SURFACE('',#829,0.2);
#708=CYLINDRICAL_SURFACE('',#832,6.5);
#709=CYLINDRICAL_SURFACE('',#848,10.);
#710=ADVANCED_FACE('',(#85),#692,.F.);
#711=ADVANCED_FACE('',(#86),#693,.F.);
#712=ADVANCED_FACE('',(#87),#694,.F.);
#713=ADVANCED_FACE('',(#88),#695,.F.);
#714=ADVANCED_FACE('',(#89),#61,.T.);
#715=ADVANCED_FACE('',(#90),#62,.T.);
#716=ADVANCED_FACE('',(#91,#30),#63,.F.);
#717=ADVANCED_FACE('',(#92),#64,.T.);
#718=ADVANCED_FACE('',(#93),#65,.T.);
#719=ADVANCED_FACE('',(#94),#66,.T.);
#720=ADVANCED_FACE('',(#95),#67,.T.);
#721=ADVANCED_FACE('',(#96),#68,.T.);
#722=ADVANCED_FACE('',(#97),#69,.F.);
#723=ADVANCED_FACE('',(#98),#23,.T.);
#724=ADVANCED_FACE('',(#99),#696,.T.);
#725=ADVANCED_FACE('',(#100),#697,.T.);
#726=ADVANCED_FACE('',(#101),#70,.T.);
#727=ADVANCED_FACE('',(#102),#698,.F.);
#728=ADVANCED_FACE('',(#103,#31,#32,#33,#34),#71,.T.);
#729=ADVANCED_FACE('',(#104),#24,.T.);
#730=ADVANCED_FACE('',(#105),#699,.T.);
#731=ADVANCED_FACE('',(#106),#700,.T.);
#732=ADVANCED_FACE('',(#107),#72,.T.);
#733=ADVANCED_FACE('',(#108),#701,.F.);
#734=ADVANCED_FACE('',(#109),#25,.T.);
#735=ADVANCED_FACE('',(#110),#702,.T.);
#736=ADVANCED_FACE('',(#111),#703,.T.);
#737=ADVANCED_FACE('',(#112),#73,.T.);
#738=ADVANCED_FACE('',(#113),#704,.F.);
#739=ADVANCED_FACE('',(#114),#26,.T.);
#740=ADVANCED_FACE('',(#115),#705,.T.);
#741=ADVANCED_FACE('',(#116),#706,.T.);
#742=ADVANCED_FACE('',(#117),#707,.T.);
#743=ADVANCED_FACE('',(#118),#27,.T.);
#744=ADVANCED_FACE('',(#119),#708,.F.);
#745=ADVANCED_FACE('',(#120),#74,.T.);
#746=ADVANCED_FACE('',(#121),#75,.T.);
#747=ADVANCED_FACE('',(#122),#76,.T.);
#748=ADVANCED_FACE('',(#123),#77,.T.);
#749=ADVANCED_FACE('',(#124),#78,.T.);
#750=ADVANCED_FACE('',(#125,#35),#79,.T.);
#751=ADVANCED_FACE('',(#126),#80,.T.);
#752=ADVANCED_FACE('',(#127),#81,.T.);
#753=ADVANCED_FACE('',(#128),#82,.T.);
#754=ADVANCED_FACE('',(#129),#28,.T.);
#755=ADVANCED_FACE('',(#130),#709,.T.);
#756=ADVANCED_FACE('',(#131),#29,.T.);
#757=ADVANCED_FACE('',(#132),#83,.T.);
#758=ADVANCED_FACE('',(#133),#84,.T.);
#759=CLOSED_SHELL('',(#710,#711,#712,#713,#714,#715,#716,#717,#718,#719,
#720,#721,#722,#723,#724,#725,#726,#727,#728,#729,#730,#731,#732,#733,#734,
#735,#736,#737,#738,#739,#740,#741,#742,#743,#744,#745,#746,#747,#748,#749,
#750,#751,#752,#753,#754,#755,#756,#757,#758));
#760=DERIVED_UNIT_ELEMENT(#762,1.);
#761=DERIVED_UNIT_ELEMENT(#1423,-3.);
#762=(
MASS_UNIT()
NAMED_UNIT(*)
SI_UNIT(.KILO.,.GRAM.)
);
#763=DERIVED_UNIT((#760,#761));
#764=MEASURE_REPRESENTATION_ITEM('density measure',
POSITIVE_RATIO_MEASURE(7850.),#763);
#765=PROPERTY_DEFINITION_REPRESENTATION(#770,#767);
#766=PROPERTY_DEFINITION_REPRESENTATION(#771,#768);
#767=REPRESENTATION('material name',(#769),#1420);
#768=REPRESENTATION('density',(#764),#1420);
#769=DESCRIPTIVE_REPRESENTATION_ITEM('Steel','Steel');
#770=PROPERTY_DEFINITION('material property','material name',#1430);
#771=PROPERTY_DEFINITION('material property','density of part',#1430);
#772=AXIS2_PLACEMENT_3D('',#1083,#855,#856);
#773=AXIS2_PLACEMENT_3D('',#1084,#857,#858);
#774=AXIS2_PLACEMENT_3D('',#1089,#860,#861);
#775=AXIS2_PLACEMENT_3D('',#1092,#863,#864);
#776=AXIS2_PLACEMENT_3D('',#1093,#865,#866);
#777=AXIS2_PLACEMENT_3D('',#1097,#868,#869);
#778=AXIS2_PLACEMENT_3D('',#1099,#871,#872);
#779=AXIS2_PLACEMENT_3D('',#1103,#874,#875);
#780=AXIS2_PLACEMENT_3D('',#1105,#877,#878);
#781=AXIS2_PLACEMENT_3D('',#1108,#881,#882);
#782=AXIS2_PLACEMENT_3D('',#1114,#886,#887);
#783=AXIS2_PLACEMENT_3D('',#1118,#890,#891);
#784=AXIS2_PLACEMENT_3D('',#1120,#892,#893);
#785=AXIS2_PLACEMENT_3D('',#1121,#894,#895);
#786=AXIS2_PLACEMENT_3D('',#1129,#900,#901);
#787=AXIS2_PLACEMENT_3D('',#1133,#904,#905);
#788=AXIS2_PLACEMENT_3D('',#1138,#909,#910);
#789=AXIS2_PLACEMENT_3D('',#1140,#912,#913);
#790=AXIS2_PLACEMENT_3D('',#1142,#915,#916);
#791=AXIS2_PLACEMENT_3D('',#1143,#917,#918);
#792=AXIS2_PLACEMENT_3D('',#1146,#919,#920);
#793=AXIS2_PLACEMENT_3D('',#1165,#921,#922);
#794=AXIS2_PLACEMENT_3D('',#1182,#923,#924);
#795=AXIS2_PLACEMENT_3D('',#1186,#926,#927);
#796=AXIS2_PLACEMENT_3D('',#1188,#929,#930);
#797=AXIS2_PLACEMENT_3D('',#1191,#933,#934);
#798=AXIS2_PLACEMENT_3D('',#1197,#938,#939);
#799=AXIS2_PLACEMENT_3D('',#1200,#941,#942);
#800=AXIS2_PLACEMENT_3D('',#1201,#943,#944);
#801=AXIS2_PLACEMENT_3D('',#1203,#945,#946);
#802=AXIS2_PLACEMENT_3D('',#1206,#947,#948);
#803=AXIS2_PLACEMENT_3D('',#1214,#952,#953);
#804=AXIS2_PLACEMENT_3D('',#1218,#955,#956);
#805=AXIS2_PLACEMENT_3D('',#1222,#959,#960);
#806=AXIS2_PLACEMENT_3D('',#1241,#961,#962);
#807=AXIS2_PLACEMENT_3D('',#1258,#963,#964);
#808=AXIS2_PLACEMENT_3D('',#1260,#965,#966);
#809=AXIS2_PLACEMENT_3D('',#1262,#968,#969);
#810=AXIS2_PLACEMENT_3D('',#1264,#971,#972);
#811=AXIS2_PLACEMENT_3D('',#1270,#976,#977);
#812=AXIS2_PLACEMENT_3D('',#1273,#979,#980);
#813=AXIS2_PLACEMENT_3D('',#1274,#981,#982);
#814=AXIS2_PLACEMENT_3D('',#1293,#983,#984);
#815=AXIS2_PLACEMENT_3D('',#1310,#985,#986);
#816=AXIS2_PLACEMENT_3D('',#1312,#987,#988);
#817=AXIS2_PLACEMENT_3D('',#1314,#990,#991);
#818=AXIS2_PLACEMENT_3D('',#1316,#993,#994);
#819=AXIS2_PLACEMENT_3D('',#1322,#998,#999);
#820=AXIS2_PLACEMENT_3D('',#1325,#1001,#1002);
#821=AXIS2_PLACEMENT_3D('',#1326,#1003,#1004);
#822=AXIS2_PLACEMENT_3D('',#1328,#1005,#1006);
#823=AXIS2_PLACEMENT_3D('',#1330,#1007,#1008);
#824=AXIS2_PLACEMENT_3D('',#1331,#1009,#1010);
#825=AXIS2_PLACEMENT_3D('',#1332,#1011,#1012);
#826=AXIS2_PLACEMENT_3D('',#1335,#1014,#1015);
#827=AXIS2_PLACEMENT_3D('',#1336,#1016,#1017);
#828=AXIS2_PLACEMENT_3D('',#1338,#1018,#1019);
#829=AXIS2_PLACEMENT_3D('',#1357,#1021,#1022);
#830=AXIS2_PLACEMENT_3D('',#1376,#1024,#1025);
#831=AXIS2_PLACEMENT_3D('',#1377,#1026,#1027);
#832=AXIS2_PLACEMENT_3D('',#1378,#1028,#1029);
#833=AXIS2_PLACEMENT_3D('',#1382,#1031,#1032);
#834=AXIS2_PLACEMENT_3D('',#1384,#1034,#1035);
#835=AXIS2_PLACEMENT_3D('',#1388,#1038,#1039);
#836=AXIS2_PLACEMENT_3D('',#1390,#1041,#1042);
#837=AXIS2_PLACEMENT_3D('',#1392,#1044,#1045);
#838=AXIS2_PLACEMENT_3D('',#1394,#1047,#1048);
#839=AXIS2_PLACEMENT_3D('',#1396,#1050,#1051);
#840=AXIS2_PLACEMENT_3D('',#1398,#1052,#1053);
#841=AXIS2_PLACEMENT_3D('',#1399,#1054,#1055);
#842=AXIS2_PLACEMENT_3D('',#1400,#1056,#1057);
#843=AXIS2_PLACEMENT_3D('',#1401,#1058,#1059);
#844=AXIS2_PLACEMENT_3D('',#1402,#1060,#1061);
#845=AXIS2_PLACEMENT_3D('',#1405,#1062,#1063);
#846=AXIS2_PLACEMENT_3D('',#1406,#1064,#1065);
#847=AXIS2_PLACEMENT_3D('',#1407,#1066,#1067);
#848=AXIS2_PLACEMENT_3D('',#1408,#1068,#1069);
#849=AXIS2_PLACEMENT_3D('',#1411,#1070,#1071);
#850=AXIS2_PLACEMENT_3D('',#1413,#1073,#1074);
#851=AXIS2_PLACEMENT_3D('',#1414,#1075,#1076);
#852=AXIS2_PLACEMENT_3D('',#1415,#1077,#1078);
#853=AXIS2_PLACEMENT_3D('',#1416,#1079,#1080);
#854=AXIS2_PLACEMENT_3D('',#1417,#1081,#1082);
#855=DIRECTION('axis',(0.,0.,1.));
#856=DIRECTION('refdir',(1.,0.,0.));
#857=DIRECTION('center_axis',(0.,0.,1.));
#858=DIRECTION('ref_axis',(0.707106781186548,0.707106781186548,0.));
#859=DIRECTION('',(0.,0.,-1.));
#860=DIRECTION('center_axis',(0.707106781186548,0.,-0.707106781186548));
#861=DIRECTION('ref_axis',(-0.707106781186548,0.,-0.707106781186548));
#862=DIRECTION('',(0.,0.,1.));
#863=DIRECTION('center_axis',(-0.707106781186548,0.,-0.707106781186548));
#864=DIRECTION('ref_axis',(-0.707106781186548,0.,0.707106781186548));
#865=DIRECTION('center_axis',(-1.,0.,0.));
#866=DIRECTION('ref_axis',(0.,0.707106781186547,0.707106781186548));
#867=DIRECTION('',(1.,0.,0.));
#868=DIRECTION('center_axis',(0.707106781186548,0.,0.707106781186548));
#869=DIRECTION('ref_axis',(0.707106781186547,0.,-0.707106781186547));
#870=DIRECTION('',(-1.,0.,0.));
#871=DIRECTION('center_axis',(0.,0.,-1.));
#872=DIRECTION('ref_axis',(-0.707106781186548,0.707106781186547,0.));
#873=DIRECTION('',(0.,0.,1.));
#874=DIRECTION('center_axis',(-0.707106781186548,0.,0.707106781186548));
#875=DIRECTION('ref_axis',(0.707106781186547,0.,0.707106781186547));
#876=DIRECTION('',(0.,0.,-1.));
#877=DIRECTION('center_axis',(1.,0.,0.));
#878=DIRECTION('ref_axis',(0.,0.707106781186548,-0.707106781186548));
#879=DIRECTION('',(1.,0.,0.));
#880=DIRECTION('',(-1.,0.,0.));
#881=DIRECTION('center_axis',(0.,0.,1.));
#882=DIRECTION('ref_axis',(1.,0.,0.));
#883=DIRECTION('',(0.,1.,0.));
#884=DIRECTION('',(-1.,0.,0.));
#885=DIRECTION('',(0.,1.,0.));
#886=DIRECTION('center_axis',(-1.,0.,0.));
#887=DIRECTION('ref_axis',(0.,0.,1.));
#888=DIRECTION('',(0.,1.,0.));
#889=DIRECTION('',(0.,0.,-1.));
#890=DIRECTION('center_axis',(0.,1.,0.));
#891=DIRECTION('ref_axis',(-1.,0.,0.));
#892=DIRECTION('center_axis',(0.,1.,0.));
#893=DIRECTION('ref_axis',(-1.,0.,0.));
#894=DIRECTION('center_axis',(0.707106781186548,-0.707106781186547,0.));
#895=DIRECTION('ref_axis',(0.,0.,-1.));
#896=DIRECTION('',(0.,0.,1.));
#897=DIRECTION('',(-0.577350269189626,-0.577350269189626,-0.577350269189626));
#898=DIRECTION('',(0.,0.,-1.));
#899=DIRECTION('',(0.577350269189626,0.577350269189626,-0.577350269189626));
#900=DIRECTION('center_axis',(0.,-0.707106781186547,0.707106781186548));
#901=DIRECTION('ref_axis',(1.,0.,0.));
#902=DIRECTION('',(1.,0.,0.));
#903=DIRECTION('',(-0.577350269189626,0.577350269189626,0.577350269189626));
#904=DIRECTION('center_axis',(0.,-0.707106781186548,-0.707106781186547));
#905=DIRECTION('ref_axis',(-1.,0.,0.));
#906=DIRECTION('',(1.,0.,0.));
#907=DIRECTION('',(-1.,0.,0.));
#908=DIRECTION('',(-0.577350269189626,0.577350269189626,-0.577350269189626));
#909=DIRECTION('center_axis',(-0.707106781186548,-0.707106781186547,0.));
#910=DIRECTION('ref_axis',(0.,0.,1.));
#911=DIRECTION('',(0.,0.,1.));
#912=DIRECTION('center_axis',(1.,0.,0.));
#913=DIRECTION('ref_axis',(0.,0.,-1.));
#914=DIRECTION('',(0.,1.,0.));
#915=DIRECTION('center_axis',(0.,1.,0.));
#916=DIRECTION('ref_axis',(-1.,0.,0.));
#917=DIRECTION('center_axis',(0.,-1.,0.));
#918=DIRECTION('ref_axis',(0.,0.,-1.));
#919=DIRECTION('center_axis',(0.,1.,0.));
#920=DIRECTION('ref_axis',(-0.391433029713746,0.,-0.920206598133874));
#921=DIRECTION('center_axis',(0.,-1.,0.));
#922=DIRECTION('ref_axis',(-0.391433029713746,0.,-0.920206598133874));
#923=DIRECTION('center_axis',(-0.574891721298566,0.,-0.818229496402062));
#924=DIRECTION('ref_axis',(0.578575625472752,0.707106781186548,-0.406509834578222));
#925=DIRECTION('',(0.574891721298566,0.,0.818229496402062));
#926=DIRECTION('center_axis',(-0.953475090498452,0.,0.301471809293952));
#927=DIRECTION('ref_axis',(0.301471809293952,0.,0.953475090498452));
#928=DIRECTION('',(-0.574891721298566,0.,-0.818229496402062));
#929=DIRECTION('center_axis',(0.,0.,1.));
#930=DIRECTION('ref_axis',(-0.707106781186548,0.707106781186548,0.));
#931=DIRECTION('',(0.,0.,1.));
#932=DIRECTION('',(0.,0.,-1.));
#933=DIRECTION('center_axis',(-1.,0.,0.));
#934=DIRECTION('ref_axis',(0.,0.,1.));
#935=DIRECTION('',(0.,1.,0.));
#936=DIRECTION('',(0.,0.,-1.));
#937=DIRECTION('',(0.,1.,0.));
#938=DIRECTION('center_axis',(0.,1.,0.));
#939=DIRECTION('ref_axis',(-1.,0.,0.));
#940=DIRECTION('',(0.,1.,0.));
#941=DIRECTION('center_axis',(0.,1.,0.));
#942=DIRECTION('ref_axis',(-1.,0.,0.));
#943=DIRECTION('center_axis',(0.,1.,0.));
#944=DIRECTION('ref_axis',(-1.,0.,0.));
#945=DIRECTION('center_axis',(0.,-1.,0.));
#946=DIRECTION('ref_axis',(-1.,0.,0.));
#947=DIRECTION('center_axis',(0.,1.,0.));
#948=DIRECTION('ref_axis',(-0.920206598133874,0.,0.391433029713746));
#949=DIRECTION('',(-0.674098191853728,0.,-0.738641745191493));
#950=DIRECTION('',(0.,0.,-1.));
#951=DIRECTION('',(0.,0.,1.));
#952=DIRECTION('center_axis',(0.,1.,0.));
#953=DIRECTION('ref_axis',(0.391433029713746,0.,-0.920206598133874));
#954=DIRECTION('',(0.574891721298566,0.,-0.818229496402062));
#955=DIRECTION('center_axis',(0.,1.,0.));
#956=DIRECTION('ref_axis',(0.920206598133874,0.,0.391433029713746));
#957=DIRECTION('',(0.,0.,1.));
#958=DIRECTION('',(-0.674098191853728,0.,0.738641745191493));
#959=DIRECTION('center_axis',(0.,-1.,0.));
#960=DIRECTION('ref_axis',(0.,0.,-1.));
#961=DIRECTION('center_axis',(0.,-1.,0.));
#962=DIRECTION('ref_axis',(-0.920206598133874,0.,0.391433029713746));
#963=DIRECTION('center_axis',(0.,0.,1.));
#964=DIRECTION('ref_axis',(-0.707106781186548,0.707106781186548,0.));
#965=DIRECTION('center_axis',(0.361495681031253,-1.00335207095862E-15,0.932373783734695));
#966=DIRECTION('ref_axis',(0.932373783734695,-2.58785710564783E-15,-0.361495681031253));
#967=DIRECTION('',(0.,0.,1.));
#968=DIRECTION('center_axis',(0.674098191853728,0.,0.738641745191493));
#969=DIRECTION('ref_axis',(-0.522298586892372,0.707106781186549,0.476659402645358));
#970=DIRECTION('',(0.674098191853728,0.,0.738641745191493));
#971=DIRECTION('center_axis',(-0.738641745191493,0.,0.674098191853728));
#972=DIRECTION('ref_axis',(0.674098191853728,0.,0.738641745191493));
#973=DIRECTION('',(0.,1.,0.));
#974=DIRECTION('',(-0.674098191853728,0.,-0.738641745191493));
#975=DIRECTION('',(0.,1.,0.));
#976=DIRECTION('center_axis',(0.,1.,0.));
#977=DIRECTION('ref_axis',(-1.,0.,0.));
#978=DIRECTION('',(0.,1.,0.));
#979=DIRECTION('center_axis',(0.,1.,0.));
#980=DIRECTION('ref_axis',(-1.,0.,0.));
#981=DIRECTION('center_axis',(0.,-1.,0.));
#982=DIRECTION('ref_axis',(0.,0.,-1.));
#983=DIRECTION('center_axis',(0.,-1.,0.));
#984=DIRECTION('ref_axis',(0.920206598133874,0.,0.391433029713746));
#985=DIRECTION('center_axis',(0.674098191853728,0.,-0.738641745191493));
#986=DIRECTION('ref_axis',(0.52229858689237,0.707106781186548,0.476659402645361));
#987=DIRECTION('center_axis',(0.361495681031257,0.,-0.932373783734693));
#988=DIRECTION('ref_axis',(-0.932373783734693,0.,-0.361495681031257));
#989=DIRECTION('',(0.674098191853728,0.,-0.738641745191493));
#990=DIRECTION('center_axis',(0.,0.,-1.));
#991=DIRECTION('ref_axis',(0.707106781186548,0.707106781186548,0.));
#992=DIRECTION('',(0.,0.,-1.));
#993=DIRECTION('center_axis',(1.,0.,0.));
#994=DIRECTION('ref_axis',(0.,0.,-1.));
#995=DIRECTION('',(0.,1.,0.));
#996=DIRECTION('',(0.,0.,1.));
#997=DIRECTION('',(0.,1.,0.));
#998=DIRECTION('center_axis',(0.,1.,0.));
#999=DIRECTION('ref_axis',(0.920206598133874,0.,0.391433029713746));
#1000=DIRECTION('',(0.,1.,0.));
#1001=DIRECTION('center_axis',(0.,1.,0.));
#1002=DIRECTION('ref_axis',(-1.,0.,0.));
#1003=DIRECTION('center_axis',(0.,1.,0.));
#1004=DIRECTION('ref_axis',(0.,0.,1.));
#1005=DIRECTION('center_axis',(-1.,0.,1.11022302462516E-16));
#1006=DIRECTION('ref_axis',(-1.11022302462516E-16,0.,-1.));
#1007=DIRECTION('center_axis',(0.,1.,0.));
#1008=DIRECTION('ref_axis',(-1.,0.,0.));
#1009=DIRECTION('center_axis',(0.,1.,0.));
#1010=DIRECTION('ref_axis',(-1.,0.,0.));
#1011=DIRECTION('center_axis',(0.,1.,0.));
#1012=DIRECTION('ref_axis',(-1.,0.,0.));
#1013=DIRECTION('',(0.,-1.,0.));
#1014=DIRECTION('center_axis',(0.,-1.,0.));
#1015=DIRECTION('ref_axis',(-1.,0.,0.));
#1016=DIRECTION('center_axis',(0.,0.,-1.));
#1017=DIRECTION('ref_axis',(0.707106781186548,0.707106781186548,0.));
#1018=DIRECTION('center_axis',(-0.953475090498452,0.,-0.301471809293952));
#1019=DIRECTION('ref_axis',(-0.301471809293952,0.,0.953475090498452));
#1020=DIRECTION('',(0.,0.,-1.));
#1021=DIRECTION('center_axis',(-0.574891721298566,0.,0.818229496402062));
#1022=DIRECTION('ref_axis',(-0.578575625472752,0.707106781186548,-0.406509834578222));
#1023=DIRECTION('',(-0.574891721298566,0.,0.818229496402062));
#1024=DIRECTION('center_axis',(0.,-1.,0.));
#1025=DIRECTION('ref_axis',(0.,0.,-1.));
#1026=DIRECTION('center_axis',(0.,-1.,0.));
#1027=DIRECTION('ref_axis',(0.391433029713746,0.,-0.920206598133874));
#1028=DIRECTION('center_axis',(0.,1.,0.));
#1029=DIRECTION('ref_axis',(-1.,0.,0.));
#1030=DIRECTION('',(0.,1.,0.));
#1031=DIRECTION('center_axis',(0.,1.,0.));
#1032=DIRECTION('ref_axis',(-1.,0.,0.));
#1033=DIRECTION('',(0.,1.,0.));
#1034=DIRECTION('center_axis',(1.,0.,0.));
#1035=DIRECTION('ref_axis',(0.,0.,-1.));
#1036=DIRECTION('',(0.,1.,0.));
#1037=DIRECTION('',(0.,0.,1.));
#1038=DIRECTION('center_axis',(0.818229496402062,0.,-0.574891721298566));
#1039=DIRECTION('ref_axis',(-0.574891721298566,0.,-0.818229496402062));
#1040=DIRECTION('',(0.574891721298566,0.,0.818229496402062));
#1041=DIRECTION('center_axis',(0.738641745191493,0.,0.674098191853728));
#1042=DIRECTION('ref_axis',(0.674098191853728,0.,-0.738641745191493));
#1043=DIRECTION('',(-0.674098191853728,0.,0.738641745191493));
#1044=DIRECTION('center_axis',(-1.,0.,0.));
#1045=DIRECTION('ref_axis',(0.,0.,1.));
#1046=DIRECTION('',(0.,0.,-1.));
#1047=DIRECTION('center_axis',(-0.818229496402062,0.,-0.574891721298566));
#1048=DIRECTION('ref_axis',(-0.574891721298566,0.,0.818229496402062));
#1049=DIRECTION('',(0.574891721298566,0.,-0.818229496402062));
#1050=DIRECTION('center_axis',(0.,1.,0.));
#1051=DIRECTION('ref_axis',(-1.,0.,0.));
#1052=DIRECTION('center_axis',(0.,-1.,0.));
#1053=DIRECTION('ref_axis',(-1.,0.,0.));
#1054=DIRECTION('center_axis',(0.,1.,0.));
#1055=DIRECTION('ref_axis',(-1.,0.,0.));
#1056=DIRECTION('center_axis',(0.,1.,0.));
#1057=DIRECTION('ref_axis',(-1.,0.,0.));
#1058=DIRECTION('center_axis',(0.,1.,0.));
#1059=DIRECTION('ref_axis',(-1.,0.,0.));
#1060=DIRECTION('center_axis',(0.,1.,0.));
#1061=DIRECTION('ref_axis',(0.,0.,1.));
#1062=DIRECTION('center_axis',(0.,-1.,0.));
#1063=DIRECTION('ref_axis',(-1.,0.,0.));
#1064=DIRECTION('center_axis',(-1.,0.,1.11022302462516E-16));
#1065=DIRECTION('ref_axis',(-1.11022302462516E-16,0.,-1.));
#1066=DIRECTION('center_axis',(0.,-1.,0.));
#1067=DIRECTION('ref_axis',(-1.,0.,0.));
#1068=DIRECTION('center_axis',(0.,1.,0.));
#1069=DIRECTION('ref_axis',(-1.,0.,0.));
#1070=DIRECTION('center_axis',(0.,1.,0.));
#1071=DIRECTION('ref_axis',(-1.,0.,0.));
#1072=DIRECTION('',(0.,-1.,0.));
#1073=DIRECTION('center_axis',(0.,1.,0.));
#1074=DIRECTION('ref_axis',(-1.,0.,0.));
#1075=DIRECTION('center_axis',(0.,1.,0.));
#1076=DIRECTION('ref_axis',(0.,0.,1.));
#1077=DIRECTION('center_axis',(-1.,0.,1.11022302462516E-16));
#1078=DIRECTION('ref_axis',(-1.11022302462516E-16,0.,-1.));
#1079=DIRECTION('center_axis',(0.,1.,0.));
#1080=DIRECTION('ref_axis',(-1.,0.,0.));
#1081=DIRECTION('center_axis',(0.,0.,-1.));
#1082=DIRECTION('ref_axis',(-1.,0.,0.));
#1083=CARTESIAN_POINT('',(0.,0.,0.));
#1084=CARTESIAN_POINT('Origin',(-1.5,2.3,-6.25));
#1085=CARTESIAN_POINT('',(-1.5,3.8,-1.));
#1086=CARTESIAN_POINT('',(-1.5,3.8,-9.));
#1087=CARTESIAN_POINT('',(-1.5,3.8,-6.25));
#1088=CARTESIAN_POINT('',(0.,2.3,-7.5));
#1089=CARTESIAN_POINT('Origin',(-1.5,2.3,-9.));
#1090=CARTESIAN_POINT('',(0.,2.3,-2.5));
#1091=CARTESIAN_POINT('',(0.,2.3,-6.25));
#1092=CARTESIAN_POINT('Origin',(-1.5,2.3,-1.));
#1093=CARTESIAN_POINT('Origin',(3.75,2.3,-9.));
#1094=CARTESIAN_POINT('',(6.5,3.8,-9.));
#1095=CARTESIAN_POINT('',(3.75,3.8,-9.));
#1096=CARTESIAN_POINT('',(5.,2.3,-7.5));
#1097=CARTESIAN_POINT('Origin',(6.5,2.3,-9.));
#1098=CARTESIAN_POINT('',(3.75,2.3,-7.5));
#1099=CARTESIAN_POINT('Origin',(6.5,2.3,-3.75));
#1100=CARTESIAN_POINT('',(6.5,3.8,-1.));
#1101=CARTESIAN_POINT('',(6.5,3.8,-3.75));
#1102=CARTESIAN_POINT('',(5.,2.3,-2.5));
#1103=CARTESIAN_POINT('Origin',(6.5,2.3,-1.));
#1104=CARTESIAN_POINT('',(5.,2.3,-3.75));
#1105=CARTESIAN_POINT('Origin',(1.25,2.3,-1.));
#1106=CARTESIAN_POINT('',(1.25,2.3,-2.5));
#1107=CARTESIAN_POINT('',(1.25,3.8,-1.));
#1108=CARTESIAN_POINT('Origin',(0.,0.,-2.5));
#1109=CARTESIAN_POINT('',(0.,1.,-2.5));
#1110=CARTESIAN_POINT('',(0.,0.,-2.5));
#1111=CARTESIAN_POINT('',(5.,1.,-2.5));
#1112=CARTESIAN_POINT('',(1.25,1.,-2.5));
#1113=CARTESIAN_POINT('',(5.,0.,-2.5));
#1114=CARTESIAN_POINT('Origin',(0.,0.,-7.5));
#1115=CARTESIAN_POINT('',(0.,1.,-7.5));
#1116=CARTESIAN_POINT('',(0.,0.,-7.5));
#1117=CARTESIAN_POINT('',(0.,1.,-6.25));
#1118=CARTESIAN_POINT('Origin',(2.5,3.8,-5.));
#1119=CARTESIAN_POINT('',(2.5,3.8,-13.));
#1120=CARTESIAN_POINT('Origin',(2.5,3.8,-5.));
#1121=CARTESIAN_POINT('Origin',(4.5,0.5,-3.75));
#1122=CARTESIAN_POINT('',(5.,1.,-7.5));
#1123=CARTESIAN_POINT('',(5.,1.,-3.75));
#1124=CARTESIAN_POINT('',(4.,0.,-3.5));
#1125=CARTESIAN_POINT('',(5.,1.,-2.5));
#1126=CARTESIAN_POINT('',(4.,0.,-6.5));
#1127=CARTESIAN_POINT('',(4.,0.,-3.75));
#1128=CARTESIAN_POINT('',(4.,0.,-6.5));
#1129=CARTESIAN_POINT('Origin',(1.25,0.5,-3.));
#1130=CARTESIAN_POINT('',(1.,0.,-3.5));
#1131=CARTESIAN_POINT('',(1.25,0.,-3.5));
#1132=CARTESIAN_POINT('',(1.,0.,-3.5));
#1133=CARTESIAN_POINT('Origin',(3.75,0.5,-7.));
#1134=CARTESIAN_POINT('',(3.75,1.,-7.5));
#1135=CARTESIAN_POINT('',(1.,0.,-6.5));
#1136=CARTESIAN_POINT('',(3.75,0.,-6.5));
#1137=CARTESIAN_POINT('',(1.,0.,-6.5));
#1138=CARTESIAN_POINT('Origin',(0.5,0.5,-6.25));
#1139=CARTESIAN_POINT('',(1.,0.,-6.25));
#1140=CARTESIAN_POINT('Origin',(5.,0.,-2.5));
#1141=CARTESIAN_POINT('',(5.,0.,-7.5));
#1142=CARTESIAN_POINT('Origin',(2.5,0.,-5.));
#1143=CARTESIAN_POINT('Origin',(2.5,12.1,-5.));
#1144=CARTESIAN_POINT('',(1.7,12.3,-11.652067347825));
#1145=CARTESIAN_POINT('',(-1.7060849358027,12.3,-10.2152516250718));
#1146=CARTESIAN_POINT('Origin',(2.5,12.3,-5.));
#1147=CARTESIAN_POINT('',(-1.43328286009178,12.1,-10.1748706208473));
#1148=CARTESIAN_POINT('Ctrl Pts',(-1.7060849358027,12.3,-10.2152516250718));
#1149=CARTESIAN_POINT('Ctrl Pts',(-1.70518106317397,12.3,-10.2151244180825));
#1150=CARTESIAN_POINT('Ctrl Pts',(-1.70427719454943,12.299996668883,-10.2149971472981));
#1151=CARTESIAN_POINT('Ctrl Pts',(-1.67595620747709,12.2997879493739,-10.2110073443532));
#1152=CARTESIAN_POINT('Ctrl Pts',(-1.64843063120718,12.2965207515808,-10.2070689286123));
#1153=CARTESIAN_POINT('Ctrl Pts',(-1.59616559576492,12.2839884079389,-10.1994801606939));
#1154=CARTESIAN_POINT('Ctrl Pts',(-1.57108461584727,12.2748910334221,-10.1957843655564));
#1155=CARTESIAN_POINT('Ctrl Pts',(-1.52232651808712,12.2493450343574,-10.1885108622885));
#1156=CARTESIAN_POINT('Ctrl Pts',(-1.49866938942044,12.2321352834995,-10.1849266581047));
#1157=CARTESIAN_POINT('Ctrl Pts',(-1.46468307619915,12.194903464419,-10.1797300645071));
#1158=CARTESIAN_POINT('Ctrl Pts',(-1.45259360040431,12.1766522660071,-10.1778637658512));
#1159=CARTESIAN_POINT('Ctrl Pts',(-1.43732383697038,12.1388325783582,-10.1754996923015));
#1160=CARTESIAN_POINT('Ctrl Pts',(-1.43344081593934,12.1202291866149,-10.1748951730981));
#1161=CARTESIAN_POINT('Ctrl Pts',(-1.43328442963318,12.1007812857607,-10.1748708648133));
#1162=CARTESIAN_POINT('Ctrl Pts',(-1.43328286009178,12.100390553902,-10.1748706208473));
#1163=CARTESIAN_POINT('Ctrl Pts',(-1.43328286009178,12.1,-10.1748706208473));
#1164=CARTESIAN_POINT('',(1.5,12.1,-11.4226162893326));
#1165=CARTESIAN_POINT('Origin',(2.5,12.1,-5.));
#1166=CARTESIAN_POINT('Ctrl Pts',(1.7,12.3,-11.652067347825));
#1167=CARTESIAN_POINT('Ctrl Pts',(1.69933365124696,12.3,-11.6513160602348));
#1168=CARTESIAN_POINT('Ctrl Pts',(1.69866736054806,12.2999966698451,-11.6505647108198));
#1169=CARTESIAN_POINT('Ctrl Pts',(1.67732869021937,12.2997833954908,-11.626497865693));
#1170=CARTESIAN_POINT('Ctrl Pts',(1.6565737810674,12.2963703822703,-11.6029636620382));
#1171=CARTESIAN_POINT('Ctrl Pts',(1.61743923571507,12.2832719873506,-11.5583581457703));
#1172=CARTESIAN_POINT('Ctrl Pts',(1.59865808055327,12.273782997807,-11.5368398108867));
#1173=CARTESIAN_POINT('Ctrl Pts',(1.56327863374264,12.2476609560927,-11.4961223130255));
#1174=CARTESIAN_POINT('Ctrl Pts',(1.54630210900803,12.2304955753268,-11.4764799959784));
#1175=CARTESIAN_POINT('Ctrl Pts',(1.52264922287722,12.1941513375256,-11.4490205277335));
#1176=CARTESIAN_POINT('Ctrl Pts',(1.51436212054424,12.1770476984119,-11.439369318461));
#1177=CARTESIAN_POINT('Ctrl Pts',(1.50379889724432,12.1421614071498,-11.4270533344354));
#1178=CARTESIAN_POINT('Ctrl Pts',(1.50085925933322,12.1254032840451,-11.4236196614062));
#1179=CARTESIAN_POINT('Ctrl Pts',(1.50005343719501,12.1053460691845,-11.422678691462));
#1180=CARTESIAN_POINT('Ctrl Pts',(1.5,12.102669336266,-11.4226162893326));
#1181=CARTESIAN_POINT('Ctrl Pts',(1.5,12.1,-11.4226162893326));
#1182=CARTESIAN_POINT('Origin',(1.73680102813032,12.1,-5.31507521954718));
#1183=CARTESIAN_POINT('',(1.7,12.3,-5.36745323369937));
#1184=CARTESIAN_POINT('',(1.73680102813032,12.3,-5.31507521954718));
#1185=CARTESIAN_POINT('',(1.5,12.1,-6.));
#1186=CARTESIAN_POINT('Origin',(1.7,12.1,-5.36745323369937));
#1187=CARTESIAN_POINT('',(1.90044692741073,12.1,-5.43005356380689));
#1188=CARTESIAN_POINT('Origin',(1.7,12.1,-8.21130814466628));
#1189=CARTESIAN_POINT('',(1.5,12.1,-8.21130814466628));
#1190=CARTESIAN_POINT('',(1.7,12.3,-8.21130814466628));
#1191=CARTESIAN_POINT('Origin',(1.5,8.8,-11.4226162893326));
#1192=CARTESIAN_POINT('',(1.5,8.8,-11.4226162893326));
#1193=CARTESIAN_POINT('',(1.5,8.8,-11.4226162893326));
#1194=CARTESIAN_POINT('',(1.5,8.8,-6.));
#1195=CARTESIAN_POINT('',(1.5,8.8,-8.21130814466628));
#1196=CARTESIAN_POINT('',(1.5,8.8,-6.));
#1197=CARTESIAN_POINT('Origin',(2.5,8.8,-5.));
#1198=CARTESIAN_POINT('',(-1.43328286009178,8.8,-10.1748706208473));
#1199=CARTESIAN_POINT('',(-1.43328286009178,8.8,-10.1748706208473));
#1200=CARTESIAN_POINT('Origin',(2.5,8.8,-5.));
#1201=CARTESIAN_POINT('Origin',(2.5,12.3,-5.));
#1202=CARTESIAN_POINT('',(2.5,12.3,-12.3));
#1203=CARTESIAN_POINT('Origin',(2.5,12.3,-5.));
#1204=CARTESIAN_POINT('',(-2.8376353726895,12.3,-9.04964796349187));
#1205=CARTESIAN_POINT('',(1.7,12.3,1.65206734782504));
#1206=CARTESIAN_POINT('Origin',(2.5,12.3,-5.));
#1207=CARTESIAN_POINT('',(1.7,12.3,-4.0775430813988));
#1208=CARTESIAN_POINT('',(-0.534227793806229,12.3,-6.52569371689327));
#1209=CARTESIAN_POINT('',(1.7,12.3,-4.5));
#1210=CARTESIAN_POINT('',(3.3,12.3,-11.652067347825));
#1211=CARTESIAN_POINT('',(3.3,12.3,-5.36745323369937));
#1212=CARTESIAN_POINT('',(3.3,12.3,-5.5));
#1213=CARTESIAN_POINT('',(6.7060849358027,12.3,-10.2152516250718));
#1214=CARTESIAN_POINT('Origin',(2.5,12.3,-5.));
#1215=CARTESIAN_POINT('',(4.72984040191557,12.3,-7.40251052997082));
#1216=CARTESIAN_POINT('',(3.3,12.3,1.65206734782504));
#1217=CARTESIAN_POINT('',(7.8376353726895,12.3,-9.04964796349187));
#1218=CARTESIAN_POINT('Origin',(2.5,12.3,-5.));
#1219=CARTESIAN_POINT('',(3.3,12.3,-4.07754308139881));
#1220=CARTESIAN_POINT('',(3.3,12.3,-1.78869185533372));
#1221=CARTESIAN_POINT('',(3.3740259972621,12.3,-4.15865691980988));
#1222=CARTESIAN_POINT('Origin',(2.5,12.1,-5.));
#1223=CARTESIAN_POINT('',(1.5,12.1,1.42261628933257));
#1224=CARTESIAN_POINT('Ctrl Pts',(1.7,12.3,1.65206734782504));
#1225=CARTESIAN_POINT('Ctrl Pts',(1.69933365124696,12.3,1.65131606023481));
#1226=CARTESIAN_POINT('Ctrl Pts',(1.69866736054807,12.2999966698451,1.65056471081976));
#1227=CARTESIAN_POINT('Ctrl Pts',(1.67732869021931,12.2997833954908,1.62649786569288));
#1228=CARTESIAN_POINT('Ctrl Pts',(1.65657378106739,12.2963703822703,1.60296366203822));
#1229=CARTESIAN_POINT('Ctrl Pts',(1.61743923571507,12.2832719873506,1.55835814577025));
#1230=CARTESIAN_POINT('Ctrl Pts',(1.59865808055326,12.273782997807,1.53683981088671));
#1231=CARTESIAN_POINT('Ctrl Pts',(1.56327863374263,12.2476609560927,1.4961223130255));
#1232=CARTESIAN_POINT('Ctrl Pts',(1.54630210900802,12.2304955753268,1.47647999597838));
#1233=CARTESIAN_POINT('Ctrl Pts',(1.52264922287721,12.1941513375256,1.44902052773347));
#1234=CARTESIAN_POINT('Ctrl Pts',(1.51436212054424,12.1770476984118,1.43936931846099));
#1235=CARTESIAN_POINT('Ctrl Pts',(1.50379889724431,12.1421614071498,1.42705333443543));
#1236=CARTESIAN_POINT('Ctrl Pts',(1.50085925933322,12.1254032840451,1.42361966140615));
#1237=CARTESIAN_POINT('Ctrl Pts',(1.50005343719501,12.1053460691845,1.42267869146203));
#1238=CARTESIAN_POINT('Ctrl Pts',(1.5,12.102669336266,1.42261628933257));
#1239=CARTESIAN_POINT('Ctrl Pts',(1.5,12.1,1.42261628933257));
#1240=CARTESIAN_POINT('',(-2.82040359308825,12.1,-8.73407359416678));
#1241=CARTESIAN_POINT('Origin',(2.5,12.1,-5.));
#1242=CARTESIAN_POINT('Ctrl Pts',(-2.8376353726895,12.3,-9.04964796349187));
#1243=CARTESIAN_POINT('Ctrl Pts',(-2.83758816895494,12.3,-9.0486077909335));
#1244=CARTESIAN_POINT('Ctrl Pts',(-2.83754087165285,12.2999966702145,-9.04756761379816));
#1245=CARTESIAN_POINT('Ctrl Pts',(-2.83601538120976,12.2997823575464,-9.01408466737671));
#1246=CARTESIAN_POINT('Ctrl Pts',(-2.83443252231894,12.2963354397706,-8.98138855103791));
#1247=CARTESIAN_POINT('Ctrl Pts',(-2.83127260049775,12.2831077940417,-8.91964003702383));
#1248=CARTESIAN_POINT('Ctrl Pts',(-2.82966779738719,12.2735304817239,-8.88988341760712));
#1249=CARTESIAN_POINT('Ctrl Pts',(-2.82639934698973,12.2462295177717,-8.83185246789133));
#1250=CARTESIAN_POINT('Ctrl Pts',(-2.82484727415509,12.228671614213,-8.80574517658397));
#1251=CARTESIAN_POINT('Ctrl Pts',(-2.82267850544427,12.1940272707481,-8.77013859029905));
#1252=CARTESIAN_POINT('Ctrl Pts',(-2.821869430195,12.1773028181062,-8.75719760465571));
#1253=CARTESIAN_POINT('Ctrl Pts',(-2.82082509313562,12.1434114947421,-8.74065640977369));
#1254=CARTESIAN_POINT('Ctrl Pts',(-2.82052175578919,12.1272892048862,-8.7359211780997));
#1255=CARTESIAN_POINT('Ctrl Pts',(-2.82041291017039,12.1069884392717,-8.73421919135595));
#1256=CARTESIAN_POINT('Ctrl Pts',(-2.82040359308825,12.1034885033894,-8.73407359416678));
#1257=CARTESIAN_POINT('Ctrl Pts',(-2.82040359308825,12.1,-8.73407359416678));
#1258=CARTESIAN_POINT('Origin',(1.7,12.1,-4.5));
#1259=CARTESIAN_POINT('',(1.5,12.1,-4.));
#1260=CARTESIAN_POINT('Origin',(1.7,12.1,-4.0775430813988));
#1261=CARTESIAN_POINT('',(1.5,12.1,-4.5));
#1262=CARTESIAN_POINT('Origin',(-0.534227793806229,12.1,-6.52569371689327));
#1263=CARTESIAN_POINT('',(-0.681956142844528,12.1,-6.39087407852252));
#1264=CARTESIAN_POINT('Origin',(-2.82040359308825,8.8,-8.73407359416678));
#1265=CARTESIAN_POINT('',(-2.82040359308825,8.8,-8.73407359416678));
#1266=CARTESIAN_POINT('',(-2.82040359308825,8.8,-8.73407359416678));
#1267=CARTESIAN_POINT('',(1.5,8.8,-4.));
#1268=CARTESIAN_POINT('',(-0.681956142844528,8.8,-6.39087407852252));
#1269=CARTESIAN_POINT('',(1.5,8.8,-4.));
#1270=CARTESIAN_POINT('Origin',(2.5,8.8,-5.));
#1271=CARTESIAN_POINT('',(1.5,8.8,1.42261628933257));
#1272=CARTESIAN_POINT('',(1.5,8.8,1.42261628933257));
#1273=CARTESIAN_POINT('Origin',(2.5,8.8,-5.));
#1274=CARTESIAN_POINT('Origin',(2.5,12.1,-5.));
#1275=CARTESIAN_POINT('',(7.82040359308825,12.1,-8.73407359416678));
#1276=CARTESIAN_POINT('Ctrl Pts',(7.8376353726895,12.3,-9.04964796349187));
#1277=CARTESIAN_POINT('Ctrl Pts',(7.83758816895493,12.3,-9.04860779093329));
#1278=CARTESIAN_POINT('Ctrl Pts',(7.83754087165283,12.2999966702145,-9.04756761379768));
#1279=CARTESIAN_POINT('Ctrl Pts',(7.83601538120981,12.2997823575463,-9.01408466737651));
#1280=CARTESIAN_POINT('Ctrl Pts',(7.83443252231893,12.2963354397705,-8.98138855103751));
#1281=CARTESIAN_POINT('Ctrl Pts',(7.83127260049775,12.2831077940416,-8.91964003702361));
#1282=CARTESIAN_POINT('Ctrl Pts',(7.82966779738718,12.2735304817239,-8.88988341760702));
#1283=CARTESIAN_POINT('Ctrl Pts',(7.82639934698973,12.2462295177716,-8.83185246789128));
#1284=CARTESIAN_POINT('Ctrl Pts',(7.82484727415509,12.228671614213,-8.80574517658394));
#1285=CARTESIAN_POINT('Ctrl Pts',(7.82267850544427,12.1940272707481,-8.77013859029905));
#1286=CARTESIAN_POINT('Ctrl Pts',(7.821869430195,12.1773028181062,-8.75719760465572));
#1287=CARTESIAN_POINT('Ctrl Pts',(7.82082509313562,12.1434114947422,-8.7406564097737));
#1288=CARTESIAN_POINT('Ctrl Pts',(7.82052175578919,12.1272892048862,-8.73592117809971));
#1289=CARTESIAN_POINT('Ctrl Pts',(7.8204129101704,12.1069884392717,-8.73421919135595));
#1290=CARTESIAN_POINT('Ctrl Pts',(7.82040359308825,12.1034885033894,-8.73407359416678));
#1291=CARTESIAN_POINT('Ctrl Pts',(7.82040359308825,12.1,-8.73407359416678));
#1292=CARTESIAN_POINT('',(3.5,12.1,1.42261628933256));
#1293=CARTESIAN_POINT('Origin',(2.5,12.1,-5.));
#1294=CARTESIAN_POINT('Ctrl Pts',(3.3,12.3,1.65206734782504));
#1295=CARTESIAN_POINT('Ctrl Pts',(3.30066634875305,12.3,1.6513160602348));
#1296=CARTESIAN_POINT('Ctrl Pts',(3.30133263945193,12.2999966698451,1.65056471081976));
#1297=CARTESIAN_POINT('Ctrl Pts',(3.32267130978073,12.2997833954908,1.62649786569282));
#1298=CARTESIAN_POINT('Ctrl Pts',(3.34342621893262,12.2963703822703,1.60296366203821));
#1299=CARTESIAN_POINT('Ctrl Pts',(3.38256076428495,12.2832719873506,1.55835814577024));
#1300=CARTESIAN_POINT('Ctrl Pts',(3.40134191944675,12.273782997807,1.5368398108867));
#1301=CARTESIAN_POINT('Ctrl Pts',(3.43672136625737,12.2476609560927,1.4961223130255));
#1302=CARTESIAN_POINT('Ctrl Pts',(3.45369789099199,12.2304955753268,1.47647999597838));
#1303=CARTESIAN_POINT('Ctrl Pts',(3.4773507771228,12.1941513375255,1.44902052773345));
#1304=CARTESIAN_POINT('Ctrl Pts',(3.48563787945576,12.1770476984118,1.43936931846099));
#1305=CARTESIAN_POINT('Ctrl Pts',(3.49620110275568,12.1421614071498,1.42705333443543));
#1306=CARTESIAN_POINT('Ctrl Pts',(3.49914074066678,12.1254032840451,1.42361966140615));
#1307=CARTESIAN_POINT('Ctrl Pts',(3.49994656280499,12.1053460691845,1.42267869146203));
#1308=CARTESIAN_POINT('Ctrl Pts',(3.5,12.102669336266,1.42261628933257));
#1309=CARTESIAN_POINT('Ctrl Pts',(3.5,12.1,1.42261628933257));
#1310=CARTESIAN_POINT('Origin',(3.3740259972621,12.1,-4.15865691980988));
#1311=CARTESIAN_POINT('',(3.5,12.1,-4.));
#1312=CARTESIAN_POINT('Origin',(3.3,12.1,-4.07754308139881));
#1313=CARTESIAN_POINT('',(3.5217543463004,12.1,-4.02383728143913));
#1314=CARTESIAN_POINT('Origin',(3.3,12.1,-1.78869185533372));
#1315=CARTESIAN_POINT('',(3.5,12.1,-1.78869185533372));
#1316=CARTESIAN_POINT('Origin',(3.5,8.8,1.42261628933256));
#1317=CARTESIAN_POINT('',(3.5,8.8,1.42261628933256));
#1318=CARTESIAN_POINT('',(3.5,8.8,1.42261628933256));
#1319=CARTESIAN_POINT('',(3.5,8.8,-4.));
#1320=CARTESIAN_POINT('',(3.5,8.8,-1.78869185533372));
#1321=CARTESIAN_POINT('',(3.5,8.8,-4.));
#1322=CARTESIAN_POINT('Origin',(2.5,8.8,-5.));
#1323=CARTESIAN_POINT('',(7.82040359308825,8.8,-8.73407359416678));
#1324=CARTESIAN_POINT('',(7.82040359308825,8.8,-8.73407359416678));
#1325=CARTESIAN_POINT('Origin',(2.5,8.8,-5.));
#1326=CARTESIAN_POINT('Origin',(2.5,12.1,-5.));
#1327=CARTESIAN_POINT('',(2.5,12.1,-12.5));
#1328=CARTESIAN_POINT('Origin',(2.5,12.1,-12.3));
#1329=CARTESIAN_POINT('',(10.,12.1,-5.));
#1330=CARTESIAN_POINT('Origin',(2.5,12.1,-5.));
#1331=CARTESIAN_POINT('Origin',(2.5,12.1,-5.));
#1332=CARTESIAN_POINT('Origin',(2.5,8.8,-5.));
#1333=CARTESIAN_POINT('',(10.,8.8,-5.));
#1334=CARTESIAN_POINT('',(10.,8.8,-5.));
#1335=CARTESIAN_POINT('Origin',(2.5,8.8,-5.));
#1336=CARTESIAN_POINT('Origin',(3.3,12.1,-5.5));
#1337=CARTESIAN_POINT('',(3.5,12.1,-6.));
#1338=CARTESIAN_POINT('Origin',(3.3,12.1,-5.36745323369937));
#1339=CARTESIAN_POINT('',(3.5,12.1,-11.4226162893326));
#1340=CARTESIAN_POINT('',(3.5,12.1,-5.5));
#1341=CARTESIAN_POINT('Ctrl Pts',(3.3,12.3,-11.652067347825));
#1342=CARTESIAN_POINT('Ctrl Pts',(3.30066634875304,12.3,-11.6513160602348));
#1343=CARTESIAN_POINT('Ctrl Pts',(3.30133263945194,12.2999966698451,-11.6505647108198));
#1344=CARTESIAN_POINT('Ctrl Pts',(3.32267130978062,12.2997833954908,-11.626497865693));
#1345=CARTESIAN_POINT('Ctrl Pts',(3.3434262189326,12.2963703822703,-11.6029636620382));
#1346=CARTESIAN_POINT('Ctrl Pts',(3.38256076428495,12.2832719873506,-11.5583581457702));
#1347=CARTESIAN_POINT('Ctrl Pts',(3.40134191944674,12.273782997807,-11.5368398108867));
#1348=CARTESIAN_POINT('Ctrl Pts',(3.43672136625736,12.2476609560927,-11.4961223130255));
#1349=CARTESIAN_POINT('Ctrl Pts',(3.45369789099197,12.2304955753268,-11.4764799959784));
#1350=CARTESIAN_POINT('Ctrl Pts',(3.47735077712278,12.1941513375256,-11.4490205277335));
#1351=CARTESIAN_POINT('Ctrl Pts',(3.48563787945576,12.1770476984118,-11.439369318461));
#1352=CARTESIAN_POINT('Ctrl Pts',(3.49620110275568,12.1421614071498,-11.4270533344354));
#1353=CARTESIAN_POINT('Ctrl Pts',(3.49914074066678,12.1254032840451,-11.4236196614062));
#1354=CARTESIAN_POINT('Ctrl Pts',(3.49994656280499,12.1053460691845,-11.422678691462));
#1355=CARTESIAN_POINT('Ctrl Pts',(3.5,12.102669336266,-11.4226162893326));
#1356=CARTESIAN_POINT('Ctrl Pts',(3.5,12.1,-11.4226162893326));
#1357=CARTESIAN_POINT('Origin',(4.72984040191557,12.1,-7.40251052997082));
#1358=CARTESIAN_POINT('',(6.43328286009178,12.1,-10.1748706208473));
#1359=CARTESIAN_POINT('Ctrl Pts',(6.7060849358027,12.3,-10.2152516250718));
#1360=CARTESIAN_POINT('Ctrl Pts',(6.70518106317397,12.3,-10.2151244180825));
#1361=CARTESIAN_POINT('Ctrl Pts',(6.70427719454943,12.299996668883,-10.2149971472981));
#1362=CARTESIAN_POINT('Ctrl Pts',(6.67595620747708,12.2997879493739,-10.2110073443532));
#1363=CARTESIAN_POINT('Ctrl Pts',(6.64843063120718,12.2965207515808,-10.2070689286123));
#1364=CARTESIAN_POINT('Ctrl Pts',(6.59616559576492,12.2839884079389,-10.1994801606939));
#1365=CARTESIAN_POINT('Ctrl Pts',(6.57108461584727,12.2748910334221,-10.1957843655564));
#1366=CARTESIAN_POINT('Ctrl Pts',(6.52232651808712,12.2493450343574,-10.1885108622885));
#1367=CARTESIAN_POINT('Ctrl Pts',(6.49866938942044,12.2321352834995,-10.1849266581047));
#1368=CARTESIAN_POINT('Ctrl Pts',(6.46468307619915,12.194903464419,-10.1797300645071));
#1369=CARTESIAN_POINT('Ctrl Pts',(6.45259360040431,12.1766522660071,-10.1778637658512));
#1370=CARTESIAN_POINT('Ctrl Pts',(6.43732383697038,12.1388325783582,-10.1754996923015));
#1371=CARTESIAN_POINT('Ctrl Pts',(6.43344081593934,12.1202291866149,-10.1748951730981));
#1372=CARTESIAN_POINT('Ctrl Pts',(6.43328442963318,12.1007812857607,-10.1748708648133));
#1373=CARTESIAN_POINT('Ctrl Pts',(6.43328286009178,12.100390553902,-10.1748706208473));
#1374=CARTESIAN_POINT('Ctrl Pts',(6.43328286009178,12.1,-10.1748706208473));
#1375=CARTESIAN_POINT('',(4.56619450263516,12.1,-7.51748887423053));
#1376=CARTESIAN_POINT('Origin',(2.5,12.1,-5.));
#1377=CARTESIAN_POINT('Origin',(2.5,12.1,-5.));
#1378=CARTESIAN_POINT('Origin',(2.5,8.8,-5.));
#1379=CARTESIAN_POINT('',(3.5,8.8,-11.4226162893326));
#1380=CARTESIAN_POINT('',(3.5,8.8,-11.4226162893326));
#1381=CARTESIAN_POINT('',(6.43328286009178,8.8,-10.1748706208473));
#1382=CARTESIAN_POINT('Origin',(2.5,8.8,-5.));
#1383=CARTESIAN_POINT('',(6.43328286009178,8.8,-10.1748706208473));
#1384=CARTESIAN_POINT('Origin',(3.5,8.8,-6.));
#1385=CARTESIAN_POINT('',(3.5,8.8,-6.));
#1386=CARTESIAN_POINT('',(3.5,8.8,-6.));
#1387=CARTESIAN_POINT('',(3.5,8.8,-5.5));
#1388=CARTESIAN_POINT('Origin',(1.5,8.8,-6.));
#1389=CARTESIAN_POINT('',(1.90044692741073,8.8,-5.43005356380689));
#1390=CARTESIAN_POINT('Origin',(3.5,8.8,-4.));
#1391=CARTESIAN_POINT('',(3.5217543463004,8.8,-4.02383728143913));
#1392=CARTESIAN_POINT('Origin',(1.5,8.8,-4.));
#1393=CARTESIAN_POINT('',(1.5,8.8,-4.5));
#1394=CARTESIAN_POINT('Origin',(6.43328286009178,8.8,-10.1748706208473));
#1395=CARTESIAN_POINT('',(4.56619450263516,8.8,-7.51748887423053));
#1396=CARTESIAN_POINT('Origin',(2.5,8.8,-5.));
#1397=CARTESIAN_POINT('',(2.5,8.8,-14.));
#1398=CARTESIAN_POINT('Origin',(2.5,8.8,-5.));
#1399=CARTESIAN_POINT('Origin',(2.5,8.8,-5.));
#1400=CARTESIAN_POINT('Origin',(2.5,8.8,-5.));
#1401=CARTESIAN_POINT('Origin',(2.5,8.8,-5.));
#1402=CARTESIAN_POINT('Origin',(2.5,5.8,-5.));
#1403=CARTESIAN_POINT('',(12.5,5.8,-5.));
#1404=CARTESIAN_POINT('',(2.5,5.8,-15.));
#1405=CARTESIAN_POINT('Origin',(2.5,5.8,-5.));
#1406=CARTESIAN_POINT('Origin',(2.5,5.8,-13.));
#1407=CARTESIAN_POINT('Origin',(2.5,5.8,-5.));
#1408=CARTESIAN_POINT('Origin',(2.5,3.8,-5.));
#1409=CARTESIAN_POINT('',(12.5,7.8,-5.));
#1410=CARTESIAN_POINT('',(2.5,7.8,-15.));
#1411=CARTESIAN_POINT('Origin',(2.5,7.8,-5.));
#1412=CARTESIAN_POINT('',(12.5,3.8,-5.));
#1413=CARTESIAN_POINT('Origin',(2.5,7.8,-5.));
#1414=CARTESIAN_POINT('Origin',(2.5,7.8,-5.));
#1415=CARTESIAN_POINT('Origin',(2.5,7.8,-14.));
#1416=CARTESIAN_POINT('Origin',(2.5,8.8,-5.));
#1417=CARTESIAN_POINT('Origin',(5.,0.,-7.5));
#1418=UNCERTAINTY_MEASURE_WITH_UNIT(LENGTH_MEASURE(0.01),#1422,
'DISTANCE_ACCURACY_VALUE',
'Maximum model space distance between geometric entities at asserted c
onnectivities');
#1419=UNCERTAINTY_MEASURE_WITH_UNIT(LENGTH_MEASURE(0.01),#1422,
'DISTANCE_ACCURACY_VALUE',
'Maximum model space distance between geometric entities at asserted c
onnectivities');
#1420=(
GEOMETRIC_REPRESENTATION_CONTEXT(3)
GLOBAL_UNCERTAINTY_ASSIGNED_CONTEXT((#1418))
GLOBAL_UNIT_ASSIGNED_CONTEXT((#1422,#1424,#1425))
REPRESENTATION_CONTEXT('','3D')
);
#1421=(
GEOMETRIC_REPRESENTATION_CONTEXT(3)
GLOBAL_UNCERTAINTY_ASSIGNED_CONTEXT((#1419))
GLOBAL_UNIT_ASSIGNED_CONTEXT((#1422,#1424,#1425))
REPRESENTATION_CONTEXT('','3D')
);
#1422=(
LENGTH_UNIT()
NAMED_UNIT(*)
SI_UNIT(.MILLI.,.METRE.)
);
#1423=(
LENGTH_UNIT()
NAMED_UNIT(*)
SI_UNIT($,.METRE.)
);
#1424=(
NAMED_UNIT(*)
PLANE_ANGLE_UNIT()
SI_UNIT($,.RADIAN.)
);
#1425=(
NAMED_UNIT(*)
SI_UNIT($,.STERADIAN.)
SOLID_ANGLE_UNIT()
);
#1426=SHAPE_DEFINITION_REPRESENTATION(#1427,#1428);
#1427=PRODUCT_DEFINITION_SHAPE('',$,#1430);
#1428=SHAPE_REPRESENTATION('',(#772),#1420);
#1429=PRODUCT_DEFINITION_CONTEXT('part definition',#1434,'design');
#1430=PRODUCT_DEFINITION('PIN2','PIN2 v11',#1431,#1429);
#1431=PRODUCT_DEFINITION_FORMATION('',$,#1436);
#1432=PRODUCT_RELATED_PRODUCT_CATEGORY('PIN2 v11','PIN2 v11',(#1436));
#1433=APPLICATION_PROTOCOL_DEFINITION('international standard',
'automotive_design',2009,#1434);
#1434=APPLICATION_CONTEXT(
'Core Data for Automotive Mechanical Design Process');
#1435=PRODUCT_CONTEXT('part definition',#1434,'mechanical');
#1436=PRODUCT('PIN2','PIN2 v11',$,(#1435));
#1437=PRESENTATION_STYLE_ASSIGNMENT((#1438));
#1438=SURFACE_STYLE_USAGE(.BOTH.,#1439);
#1439=SURFACE_SIDE_STYLE('',(#1440));
#1440=SURFACE_STYLE_FILL_AREA(#1441);
#1441=FILL_AREA_STYLE('Steel - Satin',(#1442));
#1442=FILL_AREA_STYLE_COLOUR('Steel - Satin',#1443);
#1443=COLOUR_RGB('Steel - Satin',0.627450980392157,0.627450980392157,0.627450980392157);
ENDSEC;
END-ISO-10303-21;
