ISO-10303-21;
HEADER;
/* Generated by software containing ST-Developer
 * from STEP Tools, Inc. (www.steptools.com) 
 */

FILE_DESCRIPTION(
/* description */ (''),
/* implementation_level */ '2;1');

FILE_NAME(
/* name */ 'PrazdnyPIN.step',
/* time_stamp */ '2026-01-22T18:48:03+01:00',
/* author */ (''),
/* organization */ (''),
/* preprocessor_version */ 'ST-DEVELOPER v20.1',
/* originating_system */ 'Autodesk Translation Framework v14.21.0.0',
/* authorisation */ '');

FILE_SCHEMA (('AUTOMOTIVE_DESIGN { 1 0 10303 214 3 1 1 }'));
ENDSEC;

DATA;
#10=MECHANICAL_DESIGN_GEOMETRIC_PRESENTATION_REPRESENTATION('',(#13),#396);
#11=SHAPE_REPRESENTATION_RELATIONSHIP('SRR','None',#403,#12);
#12=ADVANCED_BREP_SHAPE_REPRESENTATION('',(#14),#395);
#13=STYLED_ITEM('',(#412),#14);
#14=MANIFOLD_SOLID_BREP('Body5',#228);
#15=FACE_BOUND('',#89,.T.);
#16=PLANE('',#250);
#17=PLANE('',#254);
#18=PLANE('',#255);
#19=PLANE('',#256);
#20=PLANE('',#257);
#21=PLANE('',#258);
#22=PLANE('',#259);
#23=PLANE('',#260);
#24=PLANE('',#261);
#25=PLANE('',#262);
#26=PLANE('',#263);
#27=LINE('',#342,#48);
#28=LINE('',#354,#49);
#29=LINE('',#356,#50);
#30=LINE('',#358,#51);
#31=LINE('',#359,#52);
#32=LINE('',#363,#53);
#33=LINE('',#365,#54);
#34=LINE('',#367,#55);
#35=LINE('',#368,#56);
#36=LINE('',#371,#57);
#37=LINE('',#373,#58);
#38=LINE('',#374,#59);
#39=LINE('',#377,#60);
#40=LINE('',#379,#61);
#41=LINE('',#380,#62);
#42=LINE('',#382,#63);
#43=LINE('',#383,#64);
#44=LINE('',#385,#65);
#45=LINE('',#386,#66);
#46=LINE('',#388,#67);
#47=LINE('',#391,#68);
#48=VECTOR('',#278,10.);
#49=VECTOR('',#293,10.);
#50=VECTOR('',#294,10.);
#51=VECTOR('',#295,10.);
#52=VECTOR('',#296,10.);
#53=VECTOR('',#299,10.);
#54=VECTOR('',#300,10.);
#55=VECTOR('',#301,10.);
#56=VECTOR('',#302,10.);
#57=VECTOR('',#305,10.);
#58=VECTOR('',#306,10.);
#59=VECTOR('',#307,10.);
#60=VECTOR('',#310,10.);
#61=VECTOR('',#311,10.);
#62=VECTOR('',#312,10.);
#63=VECTOR('',#315,10.);
#64=VECTOR('',#316,10.);
#65=VECTOR('',#319,10.);
#66=VECTOR('',#320,10.);
#67=VECTOR('',#323,10.);
#68=VECTOR('',#328,10.);
#69=CYLINDRICAL_SURFACE('',#247,10.);
#70=FACE_OUTER_BOUND('',#84,.T.);
#71=FACE_OUTER_BOUND('',#85,.T.);
#72=FACE_OUTER_BOUND('',#86,.T.);
#73=FACE_OUTER_BOUND('',#87,.T.);
#74=FACE_OUTER_BOUND('',#88,.T.);
#75=FACE_OUTER_BOUND('',#90,.T.);
#76=FACE_OUTER_BOUND('',#91,.T.);
#77=FACE_OUTER_BOUND('',#92,.T.);
#78=FACE_OUTER_BOUND('',#93,.T.);
#79=FACE_OUTER_BOUND('',#94,.T.);
#80=FACE_OUTER_BOUND('',#95,.T.);
#81=FACE_OUTER_BOUND('',#96,.T.);
#82=FACE_OUTER_BOUND('',#97,.T.);
#83=FACE_OUTER_BOUND('',#98,.T.);
#84=EDGE_LOOP('',(#154,#155,#156,#157,#158));
#85=EDGE_LOOP('',(#159,#160,#161,#162,#163,#164));
#86=EDGE_LOOP('',(#165));
#87=EDGE_LOOP('',(#166,#167,#168,#169,#170));
#88=EDGE_LOOP('',(#171));
#89=EDGE_LOOP('',(#172,#173,#174,#175));
#90=EDGE_LOOP('',(#176,#177,#178,#179));
#91=EDGE_LOOP('',(#180,#181,#182,#183));
#92=EDGE_LOOP('',(#184,#185,#186,#187));
#93=EDGE_LOOP('',(#188,#189,#190,#191));
#94=EDGE_LOOP('',(#192,#193,#194,#195));
#95=EDGE_LOOP('',(#196,#197,#198,#199));
#96=EDGE_LOOP('',(#200,#201,#202,#203));
#97=EDGE_LOOP('',(#204,#205,#206,#207));
#98=EDGE_LOOP('',(#208,#209,#210,#211));
#99=CIRCLE('',#243,9.);
#100=CIRCLE('',#244,1.);
#101=CIRCLE('',#245,10.);
#102=CIRCLE('',#246,10.);
#103=CIRCLE('',#248,10.);
#104=CIRCLE('',#249,10.);
#105=CIRCLE('',#252,2.);
#106=CIRCLE('',#253,8.);
#107=VERTEX_POINT('',#333);
#108=VERTEX_POINT('',#335);
#109=VERTEX_POINT('',#337);
#110=VERTEX_POINT('',#341);
#111=VERTEX_POINT('',#343);
#112=VERTEX_POINT('',#348);
#113=VERTEX_POINT('',#352);
#114=VERTEX_POINT('',#353);
#115=VERTEX_POINT('',#355);
#116=VERTEX_POINT('',#357);
#117=VERTEX_POINT('',#361);
#118=VERTEX_POINT('',#362);
#119=VERTEX_POINT('',#364);
#120=VERTEX_POINT('',#366);
#121=VERTEX_POINT('',#370);
#122=VERTEX_POINT('',#372);
#123=VERTEX_POINT('',#376);
#124=VERTEX_POINT('',#378);
#125=EDGE_CURVE('',#107,#107,#99,.T.);
#126=EDGE_CURVE('',#107,#108,#100,.T.);
#127=EDGE_CURVE('',#108,#109,#101,.T.);
#128=EDGE_CURVE('',#109,#108,#102,.T.);
#129=EDGE_CURVE('',#109,#110,#27,.T.);
#130=EDGE_CURVE('',#111,#110,#103,.T.);
#131=EDGE_CURVE('',#110,#111,#104,.T.);
#132=EDGE_CURVE('',#111,#112,#105,.T.);
#133=EDGE_CURVE('',#112,#112,#106,.T.);
#134=EDGE_CURVE('',#113,#114,#28,.T.);
#135=EDGE_CURVE('',#114,#115,#29,.T.);
#136=EDGE_CURVE('',#115,#116,#30,.T.);
#137=EDGE_CURVE('',#116,#113,#31,.T.);
#138=EDGE_CURVE('',#117,#118,#32,.T.);
#139=EDGE_CURVE('',#118,#119,#33,.T.);
#140=EDGE_CURVE('',#119,#120,#34,.T.);
#141=EDGE_CURVE('',#120,#117,#35,.T.);
#142=EDGE_CURVE('',#120,#121,#36,.T.);
#143=EDGE_CURVE('',#121,#122,#37,.T.);
#144=EDGE_CURVE('',#122,#117,#38,.T.);
#145=EDGE_CURVE('',#123,#122,#39,.T.);
#146=EDGE_CURVE('',#121,#124,#40,.T.);
#147=EDGE_CURVE('',#124,#123,#41,.T.);
#148=EDGE_CURVE('',#118,#123,#42,.T.);
#149=EDGE_CURVE('',#124,#119,#43,.T.);
#150=EDGE_CURVE('',#118,#114,#44,.T.);
#151=EDGE_CURVE('',#123,#113,#45,.T.);
#152=EDGE_CURVE('',#117,#115,#46,.T.);
#153=EDGE_CURVE('',#122,#116,#47,.T.);
#154=ORIENTED_EDGE('',*,*,#125,.T.);
#155=ORIENTED_EDGE('',*,*,#126,.T.);
#156=ORIENTED_EDGE('',*,*,#127,.T.);
#157=ORIENTED_EDGE('',*,*,#128,.T.);
#158=ORIENTED_EDGE('',*,*,#126,.F.);
#159=ORIENTED_EDGE('',*,*,#128,.F.);
#160=ORIENTED_EDGE('',*,*,#129,.T.);
#161=ORIENTED_EDGE('',*,*,#130,.F.);
#162=ORIENTED_EDGE('',*,*,#131,.F.);
#163=ORIENTED_EDGE('',*,*,#129,.F.);
#164=ORIENTED_EDGE('',*,*,#127,.F.);
#165=ORIENTED_EDGE('',*,*,#125,.F.);
#166=ORIENTED_EDGE('',*,*,#131,.T.);
#167=ORIENTED_EDGE('',*,*,#132,.T.);
#168=ORIENTED_EDGE('',*,*,#133,.T.);
#169=ORIENTED_EDGE('',*,*,#132,.F.);
#170=ORIENTED_EDGE('',*,*,#130,.T.);
#171=ORIENTED_EDGE('',*,*,#133,.F.);
#172=ORIENTED_EDGE('',*,*,#134,.T.);
#173=ORIENTED_EDGE('',*,*,#135,.T.);
#174=ORIENTED_EDGE('',*,*,#136,.T.);
#175=ORIENTED_EDGE('',*,*,#137,.T.);
#176=ORIENTED_EDGE('',*,*,#138,.T.);
#177=ORIENTED_EDGE('',*,*,#139,.T.);
#178=ORIENTED_EDGE('',*,*,#140,.T.);
#179=ORIENTED_EDGE('',*,*,#141,.T.);
#180=ORIENTED_EDGE('',*,*,#142,.T.);
#181=ORIENTED_EDGE('',*,*,#143,.T.);
#182=ORIENTED_EDGE('',*,*,#144,.T.);
#183=ORIENTED_EDGE('',*,*,#141,.F.);
#184=ORIENTED_EDGE('',*,*,#145,.T.);
#185=ORIENTED_EDGE('',*,*,#143,.F.);
#186=ORIENTED_EDGE('',*,*,#146,.T.);
#187=ORIENTED_EDGE('',*,*,#147,.T.);
#188=ORIENTED_EDGE('',*,*,#148,.T.);
#189=ORIENTED_EDGE('',*,*,#147,.F.);
#190=ORIENTED_EDGE('',*,*,#149,.T.);
#191=ORIENTED_EDGE('',*,*,#139,.F.);
#192=ORIENTED_EDGE('',*,*,#148,.F.);
#193=ORIENTED_EDGE('',*,*,#150,.T.);
#194=ORIENTED_EDGE('',*,*,#134,.F.);
#195=ORIENTED_EDGE('',*,*,#151,.F.);
#196=ORIENTED_EDGE('',*,*,#138,.F.);
#197=ORIENTED_EDGE('',*,*,#152,.T.);
#198=ORIENTED_EDGE('',*,*,#135,.F.);
#199=ORIENTED_EDGE('',*,*,#150,.F.);
#200=ORIENTED_EDGE('',*,*,#140,.F.);
#201=ORIENTED_EDGE('',*,*,#149,.F.);
#202=ORIENTED_EDGE('',*,*,#146,.F.);
#203=ORIENTED_EDGE('',*,*,#142,.F.);
#204=ORIENTED_EDGE('',*,*,#145,.F.);
#205=ORIENTED_EDGE('',*,*,#151,.T.);
#206=ORIENTED_EDGE('',*,*,#137,.F.);
#207=ORIENTED_EDGE('',*,*,#153,.F.);
#208=ORIENTED_EDGE('',*,*,#144,.F.);
#209=ORIENTED_EDGE('',*,*,#153,.T.);
#210=ORIENTED_EDGE('',*,*,#136,.F.);
#211=ORIENTED_EDGE('',*,*,#152,.F.);
#212=TOROIDAL_SURFACE('',#242,9.,1.);
#213=TOROIDAL_SURFACE('',#251,8.,2.);
#214=ADVANCED_FACE('',(#70),#212,.T.);
#215=ADVANCED_FACE('',(#71),#69,.T.);
#216=ADVANCED_FACE('',(#72),#16,.T.);
#217=ADVANCED_FACE('',(#73),#213,.T.);
#218=ADVANCED_FACE('',(#74,#15),#17,.F.);
#219=ADVANCED_FACE('',(#75),#18,.T.);
#220=ADVANCED_FACE('',(#76),#19,.T.);
#221=ADVANCED_FACE('',(#77),#20,.T.);
#222=ADVANCED_FACE('',(#78),#21,.T.);
#223=ADVANCED_FACE('',(#79),#22,.T.);
#224=ADVANCED_FACE('',(#80),#23,.T.);
#225=ADVANCED_FACE('',(#81),#24,.F.);
#226=ADVANCED_FACE('',(#82),#25,.T.);
#227=ADVANCED_FACE('',(#83),#26,.T.);
#228=CLOSED_SHELL('',(#214,#215,#216,#217,#218,#219,#220,#221,#222,#223,
#224,#225,#226,#227));
#229=DERIVED_UNIT_ELEMENT(#231,1.);
#230=DERIVED_UNIT_ELEMENT(#398,-3.);
#231=(
MASS_UNIT()
NAMED_UNIT(*)
SI_UNIT(.KILO.,.GRAM.)
);
#232=DERIVED_UNIT((#229,#230));
#233=MEASURE_REPRESENTATION_ITEM('density measure',
POSITIVE_RATIO_MEASURE(7850.),#232);
#234=PROPERTY_DEFINITION_REPRESENTATION(#239,#236);
#235=PROPERTY_DEFINITION_REPRESENTATION(#240,#237);
#236=REPRESENTATION('material name',(#238),#395);
#237=REPRESENTATION('density',(#233),#395);
#238=DESCRIPTIVE_REPRESENTATION_ITEM('Steel','Steel');
#239=PROPERTY_DEFINITION('material property','material name',#405);
#240=PROPERTY_DEFINITION('material property','density of part',#405);
#241=AXIS2_PLACEMENT_3D('',#331,#264,#265);
#242=AXIS2_PLACEMENT_3D('',#332,#266,#267);
#243=AXIS2_PLACEMENT_3D('',#334,#268,#269);
#244=AXIS2_PLACEMENT_3D('',#336,#270,#271);
#245=AXIS2_PLACEMENT_3D('',#338,#272,#273);
#246=AXIS2_PLACEMENT_3D('',#339,#274,#275);
#247=AXIS2_PLACEMENT_3D('',#340,#276,#277);
#248=AXIS2_PLACEMENT_3D('',#344,#279,#280);
#249=AXIS2_PLACEMENT_3D('',#345,#281,#282);
#250=AXIS2_PLACEMENT_3D('',#346,#283,#284);
#251=AXIS2_PLACEMENT_3D('',#347,#285,#286);
#252=AXIS2_PLACEMENT_3D('',#349,#287,#288);
#253=AXIS2_PLACEMENT_3D('',#350,#289,#290);
#254=AXIS2_PLACEMENT_3D('',#351,#291,#292);
#255=AXIS2_PLACEMENT_3D('',#360,#297,#298);
#256=AXIS2_PLACEMENT_3D('',#369,#303,#304);
#257=AXIS2_PLACEMENT_3D('',#375,#308,#309);
#258=AXIS2_PLACEMENT_3D('',#381,#313,#314);
#259=AXIS2_PLACEMENT_3D('',#384,#317,#318);
#260=AXIS2_PLACEMENT_3D('',#387,#321,#322);
#261=AXIS2_PLACEMENT_3D('',#389,#324,#325);
#262=AXIS2_PLACEMENT_3D('',#390,#326,#327);
#263=AXIS2_PLACEMENT_3D('',#392,#329,#330);
#264=DIRECTION('axis',(0.,0.,1.));
#265=DIRECTION('refdir',(1.,0.,0.));
#266=DIRECTION('center_axis',(0.,1.,0.));
#267=DIRECTION('ref_axis',(0.,0.,1.));
#268=DIRECTION('center_axis',(0.,-1.,0.));
#269=DIRECTION('ref_axis',(-1.,0.,0.));
#270=DIRECTION('center_axis',(-1.,0.,1.11022302462516E-16));
#271=DIRECTION('ref_axis',(-1.11022302462516E-16,0.,-1.));
#272=DIRECTION('center_axis',(0.,1.,0.));
#273=DIRECTION('ref_axis',(-1.,0.,0.));
#274=DIRECTION('center_axis',(0.,1.,0.));
#275=DIRECTION('ref_axis',(-1.,0.,0.));
#276=DIRECTION('center_axis',(0.,1.,0.));
#277=DIRECTION('ref_axis',(-1.,0.,0.));
#278=DIRECTION('',(0.,-1.,0.));
#279=DIRECTION('center_axis',(0.,-1.,0.));
#280=DIRECTION('ref_axis',(-1.,0.,0.));
#281=DIRECTION('center_axis',(0.,-1.,0.));
#282=DIRECTION('ref_axis',(-1.,0.,0.));
#283=DIRECTION('center_axis',(0.,1.,0.));
#284=DIRECTION('ref_axis',(-1.,0.,0.));
#285=DIRECTION('center_axis',(0.,1.,0.));
#286=DIRECTION('ref_axis',(0.,0.,1.));
#287=DIRECTION('center_axis',(-1.,0.,1.11022302462516E-16));
#288=DIRECTION('ref_axis',(-1.11022302462516E-16,0.,-1.));
#289=DIRECTION('center_axis',(0.,1.,0.));
#290=DIRECTION('ref_axis',(-1.,0.,0.));
#291=DIRECTION('center_axis',(0.,1.,0.));
#292=DIRECTION('ref_axis',(-1.,0.,0.));
#293=DIRECTION('',(-1.,0.,0.));
#294=DIRECTION('',(0.,0.,1.));
#295=DIRECTION('',(1.,0.,0.));
#296=DIRECTION('',(0.,0.,-1.));
#297=DIRECTION('center_axis',(-0.707106781186548,-0.707106781186548,0.));
#298=DIRECTION('ref_axis',(0.,0.,1.));
#299=DIRECTION('',(0.,0.,-1.));
#300=DIRECTION('',(0.577350269189626,-0.577350269189626,0.577350269189626));
#301=DIRECTION('',(0.,0.,1.));
#302=DIRECTION('',(-0.577350269189626,0.577350269189626,0.577350269189626));
#303=DIRECTION('center_axis',(0.,-0.707106781186547,0.707106781186548));
#304=DIRECTION('ref_axis',(1.,0.,0.));
#305=DIRECTION('',(1.,0.,0.));
#306=DIRECTION('',(0.577350269189626,0.577350269189626,0.577350269189626));
#307=DIRECTION('',(-1.,0.,0.));
#308=DIRECTION('center_axis',(0.707106781186547,-0.707106781186548,0.));
#309=DIRECTION('ref_axis',(0.,0.,-1.));
#310=DIRECTION('',(0.,0.,1.));
#311=DIRECTION('',(0.,0.,-1.));
#312=DIRECTION('',(0.577350269189626,0.577350269189626,-0.577350269189626));
#313=DIRECTION('center_axis',(0.,-0.707106781186547,-0.707106781186548));
#314=DIRECTION('ref_axis',(-1.,0.,0.));
#315=DIRECTION('',(1.,0.,0.));
#316=DIRECTION('',(-1.,0.,0.));
#317=DIRECTION('center_axis',(0.,0.,-1.));
#318=DIRECTION('ref_axis',(-1.,0.,0.));
#319=DIRECTION('',(0.,1.,0.));
#320=DIRECTION('',(0.,1.,0.));
#321=DIRECTION('center_axis',(-1.,0.,0.));
#322=DIRECTION('ref_axis',(0.,0.,1.));
#323=DIRECTION('',(0.,1.,0.));
#324=DIRECTION('center_axis',(0.,1.,0.));
#325=DIRECTION('ref_axis',(1.,0.,0.));
#326=DIRECTION('center_axis',(1.,0.,0.));
#327=DIRECTION('ref_axis',(0.,0.,-1.));
#328=DIRECTION('',(0.,1.,0.));
#329=DIRECTION('center_axis',(0.,0.,1.));
#330=DIRECTION('ref_axis',(1.,0.,0.));
#331=CARTESIAN_POINT('',(0.,0.,0.));
#332=CARTESIAN_POINT('Origin',(2.5000000372529,7.8,-2.5000000372529));
#333=CARTESIAN_POINT('',(2.5000000372529,8.8,-11.5000000372529));
#334=CARTESIAN_POINT('Origin',(2.5000000372529,8.8,-2.5000000372529));
#335=CARTESIAN_POINT('',(2.5000000372529,7.8,-12.5000000372529));
#336=CARTESIAN_POINT('Origin',(2.5000000372529,7.8,-11.5000000372529));
#337=CARTESIAN_POINT('',(12.5000000372529,7.8,-2.5000000372529));
#338=CARTESIAN_POINT('Origin',(2.5000000372529,7.8,-2.5000000372529));
#339=CARTESIAN_POINT('Origin',(2.5000000372529,7.8,-2.5000000372529));
#340=CARTESIAN_POINT('Origin',(2.5000000372529,3.8,-2.5000000372529));
#341=CARTESIAN_POINT('',(12.5000000372529,5.8,-2.5000000372529));
#342=CARTESIAN_POINT('',(12.5000000372529,3.8,-2.5000000372529));
#343=CARTESIAN_POINT('',(2.5000000372529,5.8,-12.5000000372529));
#344=CARTESIAN_POINT('Origin',(2.5000000372529,5.8,-2.5000000372529));
#345=CARTESIAN_POINT('Origin',(2.5000000372529,5.8,-2.5000000372529));
#346=CARTESIAN_POINT('Origin',(2.5000000372529,8.8,-2.5000000372529));
#347=CARTESIAN_POINT('Origin',(2.5000000372529,5.8,-2.5000000372529));
#348=CARTESIAN_POINT('',(2.5000000372529,3.8,-10.5000000372529));
#349=CARTESIAN_POINT('Origin',(2.5000000372529,5.8,-10.5000000372529));
#350=CARTESIAN_POINT('Origin',(2.5000000372529,3.8,-2.5000000372529));
#351=CARTESIAN_POINT('Origin',(2.5000000372529,3.8,-2.5000000372529));
#352=CARTESIAN_POINT('',(5.,3.8,-5.));
#353=CARTESIAN_POINT('',(0.,3.8,-5.));
#354=CARTESIAN_POINT('',(5.,3.8,-5.));
#355=CARTESIAN_POINT('',(0.,3.8,0.));
#356=CARTESIAN_POINT('',(0.,3.8,-5.));
#357=CARTESIAN_POINT('',(5.,3.8,0.));
#358=CARTESIAN_POINT('',(0.,3.8,0.));
#359=CARTESIAN_POINT('',(5.,3.8,0.));
#360=CARTESIAN_POINT('Origin',(0.5,0.5,-3.75));
#361=CARTESIAN_POINT('',(0.,1.,0.));
#362=CARTESIAN_POINT('',(0.,1.,-5.));
#363=CARTESIAN_POINT('',(0.,1.,-3.75));
#364=CARTESIAN_POINT('',(1.,0.,-4.));
#365=CARTESIAN_POINT('',(0.,1.,-5.));
#366=CARTESIAN_POINT('',(1.,0.,-1.));
#367=CARTESIAN_POINT('',(1.,0.,-3.75));
#368=CARTESIAN_POINT('',(1.,0.,-1.));
#369=CARTESIAN_POINT('Origin',(1.25,0.5,-0.5));
#370=CARTESIAN_POINT('',(4.,0.,-1.));
#371=CARTESIAN_POINT('',(1.25,0.,-1.));
#372=CARTESIAN_POINT('',(5.,1.,0.));
#373=CARTESIAN_POINT('',(4.,0.,-1.));
#374=CARTESIAN_POINT('',(1.25,1.,0.));
#375=CARTESIAN_POINT('Origin',(4.5,0.5,-1.25));
#376=CARTESIAN_POINT('',(5.,1.,-5.));
#377=CARTESIAN_POINT('',(5.,1.,-1.25));
#378=CARTESIAN_POINT('',(4.,0.,-4.));
#379=CARTESIAN_POINT('',(4.,0.,-1.25));
#380=CARTESIAN_POINT('',(4.,0.,-4.));
#381=CARTESIAN_POINT('Origin',(3.75,0.5,-4.5));
#382=CARTESIAN_POINT('',(3.75,1.,-5.));
#383=CARTESIAN_POINT('',(3.75,0.,-4.));
#384=CARTESIAN_POINT('Origin',(5.,0.,-5.));
#385=CARTESIAN_POINT('',(0.,0.,-5.));
#386=CARTESIAN_POINT('',(5.,0.,-5.));
#387=CARTESIAN_POINT('Origin',(0.,0.,-5.));
#388=CARTESIAN_POINT('',(0.,0.,0.));
#389=CARTESIAN_POINT('Origin',(2.5,0.,-2.5));
#390=CARTESIAN_POINT('Origin',(5.,0.,0.));
#391=CARTESIAN_POINT('',(5.,0.,0.));
#392=CARTESIAN_POINT('Origin',(0.,0.,0.));
#393=UNCERTAINTY_MEASURE_WITH_UNIT(LENGTH_MEASURE(0.01),#397,
'DISTANCE_ACCURACY_VALUE',
'Maximum model space distance between geometric entities at asserted c
onnectivities');
#394=UNCERTAINTY_MEASURE_WITH_UNIT(LENGTH_MEASURE(0.01),#397,
'DISTANCE_ACCURACY_VALUE',
'Maximum model space distance between geometric entities at asserted c
onnectivities');
#395=(
GEOMETRIC_REPRESENTATION_CONTEXT(3)
GLOBAL_UNCERTAINTY_ASSIGNED_CONTEXT((#393))
GLOBAL_UNIT_ASSIGNED_CONTEXT((#397,#399,#400))
REPRESENTATION_CONTEXT('','3D')
);
#396=(
GEOMETRIC_REPRESENTATION_CONTEXT(3)
GLOBAL_UNCERTAINTY_ASSIGNED_CONTEXT((#394))
GLOBAL_UNIT_ASSIGNED_CONTEXT((#397,#399,#400))
REPRESENTATION_CONTEXT('','3D')
);
#397=(
LENGTH_UNIT()
NAMED_UNIT(*)
SI_UNIT(.MILLI.,.METRE.)
);
#398=(
LENGTH_UNIT()
NAMED_UNIT(*)
SI_UNIT($,.METRE.)
);
#399=(
NAMED_UNIT(*)
PLANE_ANGLE_UNIT()
SI_UNIT($,.RADIAN.)
);
#400=(
NAMED_UNIT(*)
SI_UNIT($,.STERADIAN.)
SOLID_ANGLE_UNIT()
);
#401=SHAPE_DEFINITION_REPRESENTATION(#402,#403);
#402=PRODUCT_DEFINITION_SHAPE('',$,#405);
#403=SHAPE_REPRESENTATION('',(#241),#395);
#404=PRODUCT_DEFINITION_CONTEXT('part definition',#409,'design');
#405=PRODUCT_DEFINITION('PIN3','PIN3 v8',#406,#404);
#406=PRODUCT_DEFINITION_FORMATION('',$,#411);
#407=PRODUCT_RELATED_PRODUCT_CATEGORY('PIN3 v8','PIN3 v8',(#411));
#408=APPLICATION_PROTOCOL_DEFINITION('international standard',
'automotive_design',2009,#409);
#409=APPLICATION_CONTEXT(
'Core Data for Automotive Mechanical Design Process');
#410=PRODUCT_CONTEXT('part definition',#409,'mechanical');
#411=PRODUCT('PIN3','PIN3 v8',$,(#410));
#412=PRESENTATION_STYLE_ASSIGNMENT((#413));
#413=SURFACE_STYLE_USAGE(.BOTH.,#414);
#414=SURFACE_SIDE_STYLE('',(#415));
#415=SURFACE_STYLE_FILL_AREA(#416);
#416=FILL_AREA_STYLE('Steel - Satin',(#417));
#417=FILL_AREA_STYLE_COLOUR('Steel - Satin',#418);
#418=COLOUR_RGB('Steel - Satin',0.627450980392157,0.627450980392157,0.627450980392157);
ENDSEC;
END-ISO-10303-21;
